<svg viewBox="0 0 1280 1280" xmlns="http://www.w3.org/2000/svg"><path d="M618.5.6C572.2 2.8 517.7 10.4 485 19.2c-35.5 9.5-89.2 29.1-121.3 44.2-35.5 16.7-75.7 41-107.2 64.6-47.3 35.6-82.6 69-111.9 105.6-33.4 41.9-49.9 67.5-78.3 121-8.2 15.7-23.7 52.7-31.4 75.4C15.6 486.6 5.7 536.3 1 600.5c-3.9 53.6 3.3 131.6 17.1 187 21.2 84.6 58.9 165.8 107.9 232 20.6 27.9 56.5 67.8 79.3 88.2 20.8 18.5 52.7 44.4 68.4 55.5 34.2 24.1 96 56.6 138.3 72.8 16.7 6.4 52.5 18.2 63 20.8 54.2 13.4 76.5 17.2 125.8 21.7 17 1.6 39 1.3 75.7-1 23.3-1.5 60-5.8 72.2-8.5 2.6-.6 10.8-2.2 18.3-3.6 33.6-6.1 81.4-20.8 112-34.4 39.6-17.6 69.8-32.8 91-45.8 34.3-21.1 71.2-48.7 96.5-72.3 6.1-5.6 13.8-12.4 17.1-15 3.4-2.7 7-6.1 8-7.7.9-1.5 6.6-7.9 12.5-14.2 21.2-22.7 51.2-60.2 64.3-80.3 17.6-27 41.4-71.5 54.2-101.5 5.7-13.4 10.4-24.6 10.4-24.8 0-.3 2.7-7.5 6-16 10.6-27.5 21.7-65.3 28.5-97.4 4.2-20 9.2-57.8 11.6-88 1.3-15.6.6-76.4-.9-88-.6-4.1-1.6-12.9-2.2-19.5-1.8-18.6-5.7-43.5-9.6-60.8-6.9-30.6-20.3-76.7-26.1-89.7-1.4-3-3.3-8-4.2-11-2.9-9-19.4-45.5-27.3-60.5-22.1-41.9-48.1-80.8-76.5-114.7-18.9-22.6-24.2-28.4-38.9-42.8-43.6-42.5-84.5-72.4-144.7-106-31.3-17.3-65.3-31.5-112.7-46.8-22.4-7.3-23.9-7.6-53-13.6C726.2 2.9 709 .9 661.5.6c-19.8-.2-39.1-.2-43 0zm54 11.4c17.4.6 35.2 1.7 44.5 2.9 8.5 1.1 24.4 3.2 35.4 4.6 28.2 3.6 61.4 12.4 111.6 29.4 18.9 6.4 26 9.2 53 21.1 19.4 8.5 39.9 18.9 54 27.4 18.1 10.9 52.4 34.9 66.7 46.6 5.9 4.9 15.3 12 20.8 15.7 7.7 5.2 15.3 12 33.6 30.3 30.6 30.6 48.7 51.8 66.2 77.9 18.3 27.3 23.3 35.2 30.2 47.6 4.3 7.7 9.7 17.4 12 21.6 5.2 9.2 19.4 39.8 26.4 57.1 8.5 21.2 17.6 48.1 24 71.3 14.2 51.4 19.4 86.7 22.6 155 1.1 22.2-2.5 72.2-7.5 106.5-12.9 86.9-51.2 185.3-101.1 259.6-12.1 17.9-27.7 38.8-38.5 51.4-4.9 5.8-11.8 14.1-15.4 18.5-7.6 9.6-40.1 42.1-55.6 55.8-11.1 9.8-36.3 29.6-55.5 43.8-13.9 10.2-39.2 25.6-72.4 44.1-32 17.9-104.1 44.8-145 54.2-21.6 5-37.4 7.6-61.5 10.2-13.5 1.4-25.4 3-26.5 3.5-2.2.9-30.1 2.5-62.5 3.4-23 .7-22 .8-66.5-5.6-55-8-106.3-21.5-156.5-41.4-34.3-13.5-76.2-35.4-109.3-57.1-45.5-29.8-92.8-71.8-132.7-117.9-27.6-31.9-65.3-89.7-83.7-128.4-27.4-57.4-41.7-98.6-54.8-157.4-8.9-40.1-13.8-121-10.5-172.2 1-14.3 4.2-38.1 8.6-64 3.6-21.2 14.6-63.2 24.1-92 8.2-25 13.6-37.9 30.8-74 28.7-60.1 82.3-133.6 126.6-173.3 19-17.1 21.4-19 25.8-20.3 2.3-.7 5-2.3 5.9-3.6 5.6-8 10.1-13 16.9-18.8 8.2-7 22-16.5 27.5-18.9 1.8-.8 6.3-4 10-7.3 9.6-8.5 41-26.9 73.3-43C425.1 47.4 498.2 24.6 554 18c5.2-.6 16.3-2 24.5-3.2 8.3-1.1 24.8-2.3 37-2.7 12.1-.5 23.4-.8 25-.9 1.7-.1 16.1.3 32 .8z"/><path d="M602.5 20.1c-54.6 3.1-93.1 9.8-112.5 19.4-3.6 1.8-8.8 3.8-11.7 4.5-7.9 1.8-39.2 12.1-53.3 17.5-26.5 10.1-74.8 33.6-97.5 47.5-21.5 13.1-36.1 22.7-47.5 31.1-11.1 8.2-45.3 37.1-62.3 52.5-4.5 4.1-9.6 7.9-11.4 8.5-2.3.7-3.5 1.9-4.3 4.3-.5 1.7-3.6 6.1-6.8 9.7-3.1 3.6-7.7 8.9-10.2 11.9-2.4 3-6.9 8.2-10 11.5-15.8 17.3-48.5 63.2-62.3 87.6C92.9 361 71.4 408.8 57.5 449c-2.6 7.4-5.4 15.1-6.2 17-4.5 10.9-8.6 29-13.2 59.2C29 584 28.6 588.7 28.6 637c0 33 .4 46.5 1.7 60.2 9.3 93.7 37.5 178.9 87.4 263.9 13.9 23.6 39 58.3 59.6 82.4 17.9 20.8 45.3 48.8 59.3 60.6 8.1 6.8 17.5 14.9 20.7 17.9 5.6 5.2 19.6 15.8 40.2 30.4 10.4 7.4 36.6 23.1 50.4 30.2 5.2 2.6 11.7 6.7 14.3 9.1 9.6 8.5 49.5 25.8 86.8 37.6 33.9 10.7 61.1 17.2 105 25.1 27.2 4.9 57.4 7.1 92.5 6.8 73.9-.6 135.5-12 206-37.8 58.5-21.5 111-50.4 163.3-89.9 36.8-27.7 74.6-64.4 102.6-99.3 40-50.1 57.5-78.4 86.1-139.2 7.3-15.6 21.8-52 29-73 6.1-17.6 20.3-79.7 23.5-102.8 4.7-33.5 6.5-101.1 3.6-135.2-4.6-54.3-13.3-95.3-31.8-150.5-9.7-28.9-14.4-40.7-26-64.5-24.2-50-44.9-84-71-116.7-21.5-27-30.4-37.1-51.2-57.8-43.5-43.3-93.5-79.3-152.1-109.6-15.8-8.1-26.2-12.8-57-25.7-15.5-6.5-45.1-15.9-68.2-21.6-19.7-5-67.4-13.7-84.3-15.5-28.3-3-82.6-4-116.5-2zm104 9.9c52.9 5.3 118.4 21.1 165 39.8 38 15.2 60.2 26.2 93 46 27.5 16.5 46.7 31 86 64.6 15.4 13.2 37.3 34.9 50 49.6 18.5 21.3 57.7 77.9 72.3 104 8.2 14.7 18.3 34.8 22.2 44 1.5 3.6 4.3 10.1 6.3 14.5 11.2 26 24.5 66.2 30.3 91.5 3.4 14.9 3.6 14.2-3.8 14-11.6-.3-12.4-.1-16.9 3.5-5.2 4.2-6.2 4.3-8.3 1-1.5-2.3-2.2-2.5-10-2.5-11.2 0-11.6-.4-16-16.1-2-7-4.9-16.3-6.5-20.7s-3.2-10-3.6-12.4c-1.1-6.5-5.2-19.1-9.6-29.2-2.2-4.9-4.4-12-5-15.6-.7-4.9-3.5-11.7-10.8-27-5.5-11.3-10.6-22.1-11.4-24-2.9-7.1-20-33.5-34.7-53.5a1943 1943 0 0 1-13.7-19.4c-13.9-19.8-13.9-19.9-19.2-22.5-9.5-4.9-21.4-16.7-19.6-19.5.9-1.6-22.9-24.4-40.5-38.6-4.7-3.8-11.2-9.4-14.6-12.5-4.2-3.8-10.1-7.5-19-12-7.1-3.6-16.4-9.1-20.8-12.3-4.3-3.2-9.5-6.6-11.5-7.6-2-1.1-10.8-6-19.6-11-15.6-8.9-30.7-15.6-41.8-18.5-3.1-.8-12.2-4.5-20.4-8.2-13.8-6.2-15.4-6.7-24.4-7.4-5.3-.4-12.6-1.7-16-2.9-3.5-1.1-10.4-2.7-15.4-3.5-4.9-.8-19.8-3.3-33-5.6-13.2-2.2-31.8-4.7-41.5-5.5-9.6-.8-21.1-2-25.5-2.7-4.4-.6-10.2-1.1-13-1-2.7.1-13.3-.2-23.5-.8-19.3-1.1-31.9-.5-47 2.5-4.1.8-15.4 1.9-25 2.5-9.6.5-20.9 1.4-25 1.9-4.1.6-9.5 1.1-12 1.1-4.1 0-4.3-.1-2.4-1.4 3.2-2.3 25.5-11.4 32-13.1 6.2-1.6 10.3-1.3 14.1 1.2 5.1 3.4 7.4-2.7 2.8-7.2-3.1-3.2-9.5-3.3-19.7-.5-13 3.5-51.6 11.9-60.4 13.1-6.2.8-8.9.8-9.7 0-1.7-1.7 7-5 16.5-6.2 8.7-1.1 11.7-2.4 9.8-4.3s-14-.9-21.9 1.8c-4.7 1.6-9.6 2.6-13.3 2.6-4.3 0-7.9.9-14 3.4-10.8 4.5-17.4 6.3-27.8 7.6-10.3 1.4-13 2-13 3 0 .4.6 1 1.3 1.3 1.9.7 19-1.1 27.2-2.9 8.7-1.9 19.5-3.2 19.5-2.4 0 .4-1.8 1.5-3.9 2.5-4.8 2.1-9.4 6.5-6.9 6.5.9 0 3.9-.5 6.6-1.2 4.3-.9 5.3-.9 6.7.5 1.9 2 5.5 1.5 13.9-2 6.6-2.7 16.8-3.8 23.5-2.6 8 1.5 6 2.9-8.6 6.3-26.1 6.1-38.5 9.9-83.4 25.5-26.6 9.3-32.9 11.8-32.9 13.3 0 1.2-7.2 5-13.6 7.2s-23.6 11.3-31.4 16.5c-2.9 1.9-5.6 3.5-6 3.5-.5 0-3 1.7-5.7 3.7-2.6 2-8.5 5.8-12.9 8.4-13.3 7.7-42.4 29.6-42.4 31.9 0 .9-23.6 22.2-28.8 26-2.9 2.2-3.5 2.3-5.5 1-1.2-.8-4.2-1.7-6.7-2-4.4-.5-4.6-.7-12-11.4-8-11.4-10.6-13.9-11.6-11.2-1 2.6.3 6 4 10.6 3.8 4.9 3.9 6.1.3 3.7-6.6-4.3-9.4-8.2-12.2-17-1.5-4.8-3.1-9-3.6-9.3-2.4-1.5-.1-4.9 8.7-13.1 5.3-4.8 13.3-12.3 17.7-16.6 4.4-4.2 8.4-7.7 8.8-7.7.5 0 4.3-2.8 8.6-6.3 25-20.2 49.3-36.3 88.3-58.5 17.5-9.9 41.6-21.4 54-25.7 5.8-2 14.5-5.5 19.4-7.7s18.9-7.3 31-11.4c48.3-16.1 88.2-23.6 148.6-27.9 20.1-1.4 84.4-1.1 100.5.5zm-46 70.5c5.6.9 9.6 2.1 10.7 3.3 4 4 4.7 21.6 1.1 28.5-1.3 2.6-1.4 4.6-.3 15.6 1.6 16 1 50.2-.8 52.3-1 1.2-1.1 4.2-.6 12 .4 6.6.2 13.6-.5 18.7-1.8 12-1.6 22.2.3 26 1.7 3.3 1.4 4.7-1.5 6.8-3.9 2.8-5.4 32.2-2.4 46.5 2 9.2 2 12.5.6 38.5-.7 11.6-1 24.9-.9 29.5.3 8.3.3 8.3 1.8 4.8 1.4-3.5 1.4-3.5 2.1-1 1.1 3.9 1 24.2-.1 30.1-1.7 8.4.6 29.3 3.7 33.9 1.3 1.9 2.3 4.9 2.3 6.8 0 2.5.5 3.5 2.5 4.2 2.4.9 3.4 3.4 1.7 4.4-1.3.8-20.4-2.2-21.6-3.4-.7-.7-.7-1.6.1-2.9 1.5-2.3.8-3.1-2.9-3.1-1.6 0-4.3-.7-6-1.6-2.3-1.2-14.6-3.1-22-3.4-.4 0-1.2-.9-1.7-1.9-.8-1.4-.4-4 1.3-9.7 1.6-5.5 2.5-11.9 3-20.8 1.2-21.4 3.9-20.2 5.9 2.7.7 7.9 1.5 12.6 2.2 12.4 1.1-.4 1-20.7-.5-73.8-.7-28.6-.8-29.8-3.3-35.5-3.1-7.1-3.8-17.2-4.3-55.9-.2-24.1-.4-26.6-2.5-32.5-2.4-6.8-3.9-26.2-2.4-29.7 1.2-2.6 2.2 2.5 2.4 11.4.1 6.8 1 8.9 2.7 6.2 2.6-4.2 4.8 19.4 4.2 43.9-.3 9.5-.1 17.5.3 17.8 2.9 1.8 4.9-15.8 4.9-43.7 0-13 .4-18.8 1.5-21.8.8-2.3 1.7-7 2.1-10.5.7-6.7-1-22.1-2.8-26.2-1.1-2.4-1.3-2.5-2.5-.8-.7 1-1.3 2.6-1.3 3.7 0 1-.5 1.7-1.2 1.5-2.9-1-3.5-17-1.7-41.8.9-13 .9-15.6-.5-18.9-1.1-2.9-1.3-5.8-.9-10.9.3-3.9.9-7.4 1.2-7.9 1.1-1.6 13.5-6.2 15.6-5.7 1.1.2 6 1 11 1.9zm-33.5 9.9c0 2.3-.5 5.8-1.1 7.6-.9 2.5-.8 6.3.6 17.7 1.6 12.5 1.7 14.6.4 15.4-1.9 1.2-2.5 1.1-4.3-.7s-2-8.5-.7-29.1c.9-13.7 1.3-15.3 3.7-15.3 1 0 1.4 1.2 1.4 4.4zm-15.4-2.4l2.7 1.1-.6 56.7c-.6 54.6-1.9 124.9-3.6 200.8-.8 34.2-.9 36.3-2.9 39-1.1 1.6-2.8 6.7-3.7 11.4-1.9 9.4-3.2 12.5-6.7 15.7-3.3 3-14 6.4-22.8 7-7.5.5-7.6.5-10.7-2.5-1.7-1.7-5.2-7.3-7.8-12.4-4.9-9.5-25.9-47.1-39-69.8-4-6.9-9.6-17-12.5-22.5s-16.6-30.3-30.4-55c-35.9-64.5-37.1-66.7-43.6-80.1-3.3-6.7-8-14.9-10.4-18.2-11.8-16-10.8-19 9.4-28.5 18.1-8.5 36.6-14.7 50-16.7 3.6-.6 15.1-3.7 25.5-6.9 20.5-6.3 42.7-11.4 57-13.1 5-.6 15.1-2.2 22.5-3.5 20.9-3.7 23.6-4 27.6-2.5zm110.4 2.1c16.4 2.1 29.6 4.3 35.5 6 2.2.6 5.6 1.4 7.5 1.9 1.9.4 6.2 1.6 9.4 2.5 4.1 1.2 7.5 1.5 11.1 1 4.9-.6 6.2-.2 18.6 5.3 7.4 3.2 15.2 6.5 17.4 7.1 4.8 1.5 21.5 7.7 27 10.1 30.4 13.1 28 11.6 28 17.7-.1 6.3-4.4 15.2-19.6 40.9-5.6 9.3-22.3 37.8-37.1 63.4l-42.5 73-29.6 50.9c-13.8 23.8-16 26.8-26.4 35.8-7.9 6.8-8.9 7-17 3.4-8.8-3.8-15.1-5.3-17.5-4-1.4.8-1.6 1.4-.8 2.9 1.5 2.7-.2 3.2-4.1 1.1l-3.4-1.8-.8-10.9c-.4-6-.3-47.4.3-91.9.5-44.6 1.2-107.8 1.5-140.5.6-64.6.9-71.3 3.2-73.5 1-1.1 3.8-1.5 9.1-1.6 4.2-.1 8.8-.5 10.2-.9s3.2-.6 4-.3 8 1.3 16 2.4zm187 46.1c11.1 3.9 15.5 6.5 21.3 12.7 8.1 8.6 9.4 14.6 4.5 21.1-2.8 3.9-1.6 5.1 2 1.8s5.6-3.9 9-2.7c3.2 1.1 16.7 15.6 15.1 16.1-.6.2.5 1.7 2.5 3.3 2 1.7 5.3 4.4 7.4 6.1 4.2 3.6 9.4 6.4 11.7 6.4.8 0 1.5.6 1.5 1.4 0 1.9 5.7 6.7 11.7 10 3 1.7 6 4.5 8.2 7.7 1.9 2.8 4.6 5.6 6 6.4 1.4.7 6.7 5.6 11.6 10.8 16.2 17 29.8 31.7 31.3 34 .9 1.2 4.5 5.6 8.2 9.7 3.6 4.1 7.7 9.1 9 11s4.1 5.5 6.2 8 4.4 5.5 5.1 6.6l4.4 7.5c1.8 3 3.3 5.7 3.3 6.1 0 2.2-51.3 32.5-66.4 39.2-2.8 1.2-8 4.3-11.6 6.7-3.6 2.5-12.3 7.8-19.5 11.8-7.1 4.1-21.3 12.2-31.5 18.1-26.1 15.1-38.1 21.7-45.8 25.2-3.7 1.7-13.4 7.3-21.5 12.5-8.2 5.2-17 10.3-19.5 11.5-2.6 1.1-8.3 3.7-12.7 5.8-24.2 11.6-45.9 20.4-53.1 21.5-4.5.7-5.1.4-11.8-7.7-2.6-3.1-7.9-8.3-11.8-11.4-6.5-5.2-7-5.9-6.4-8.7.3-1.7 7.1-14.4 15.1-28.1 12.9-22.4 16.9-28.9 28.1-45.6 1.7-2.5 4.3-7.4 5.8-11 3.6-8.6 13.6-24.9 24.4-40.2 14.2-19.9 29.5-45.3 38.7-64 12.3-25.3 24.9-44.5 45.4-69.8 8.1-9.9 8.3-12.3.5-6.2-1.6 1.3-4.5 3.3-6.4 4.5-4.1 2.6-28.4 38.3-39.4 57.9-15.8 28.3-48.4 82.3-52.4 87-5.7 6.7-11.9 17.3-14.6 25-1.8 5.3-13 24.3-27.4 46.8-3.8 5.8-13.1 15.2-14.4 14.4-.4-.3-.8-2-.8-3.7-.1-3.1-.1-3.1-1.6-1.2-.8 1.1-5.8 9.2-11 17.9-9.3 15.8-12 22.2-6.8 16.1 5.4-6.3 8.6-9.5 9.5-9.5.5 0 1.9-2.1 3-4.6 4.4-10.3 2.7.1-2.2 13.1-3.3 9-4.2 14.3-3.6 22.3 1.1 15.8 3.8 19.8 15.9 23.5 4.6 1.4 10.1 2.8 12.3 3.1 5.6.9 13.8-.9 22.1-4.8 4-1.9 8.7-3.7 10.5-4.1 5.3-1.1 7.8-2.7 17.9-11.4 5.8-4.9 13-9.9 18.4-12.7 4.8-2.6 16.5-9.4 25.9-15.2 20.4-12.6 32.2-18.8 37.1-19.8 10.3-1.9 2 5.6-9 8.2-3 .7-8.2 3.2-12.5 6.2-4.1 2.7-12.6 7.5-18.9 10.7-6.3 3.1-14.5 8.1-18.1 11s-9 6.9-12 8.9-8.1 5.7-11.4 8.2-8.5 5.8-11.5 7.4c-3 1.5-8.6 4.4-12.5 6.4-3.8 2-7.5 3.6-8.1 3.6s-1.7.6-2.3 1.4c-2.3 2.8.7 2.6 7.1-.4 3.4-1.6 7.5-3 8.9-3 4.5 0 19-5.9 36.4-14.9 17.3-8.9 39.5-21.7 39.5-22.7 0-.3-1.9-.3-4.2.1-3.9.7-4.1.6-2.8-.9 1.8-2.3 8.4-5.6 11-5.6 1.7 0 2 .4 1.5 2.2-.5 1.7.6 1 4.6-2.8 3-2.9 10.6-8.7 16.9-12.9 6.3-4.3 13.4-9.5 15.7-11.6s9.4-6.3 15.8-9.5c10.2-4.9 18.1-9.8 40.9-25.4 4.1-2.8 6.1-3.4 13-4.1 4.5-.4 10.3-1.7 13-2.9 6.2-2.6 15.9-9.5 21.1-15 2.2-2.3 6.9-6.1 10.5-8.6 3.6-2.4 8.8-6 11.5-8 5.3-3.8 18.1-10.4 20.2-10.4.7 0 3-2.6 5.2-5.8 5-7.4 8.4-9.8 11.8-8.3 3.8 1.8 12 9.9 13.4 13.4.7 1.8 2.3 5.4 3.5 8.2 2.8 6.4 3.8 12.4 2.5 15.7-1.6 4.4-7.1 9.8-9.8 9.8-1.3 0-5.4 1.6-9 3.5-6.6 3.5-10.3 4.4-10.3 2.5 0-4.1-12.5 3.3-22 13-7.1 7.3-10.6 9.9-15.7 11.4-3 1-2.9-.5.3-4.3 1.4-1.7 2.2-3.1 1.7-3.1-2 0-10 5.9-12.4 9-1.3 1.8-4 4.8-5.9 6.7-4 4-50.8 31.4-64.9 38-5.1 2.4-12.8 6.8-17 9.7-8 5.6-40 23.8-43.9 25-1.4.5-2.9.3-3.7-.4-.9-.7-2.6-1-4.2-.5-4.1 1-16.9 8.7-24.2 14.6-6.1 4.9-24.1 17.9-36.3 26.1-3.1 2.2-8.7 5.5-12.5 7.4-11.8 6.1-20.2 18.8-21.1 31.9l-.4 7.2 6.1 6.6c3.4 3.6 8.2 7.5 10.6 8.7 2.4 1.1 4.9 2.8 5.7 3.7 2 2.5 6.5 4 15.6 5.3 7.7 1.2 8.4 1.5 9.8 4.2l1.6 3 22.1-.2c12.2-.2 24-.2 26.1-.1 7.2.2 2.8 1.4-8.3 2.1-7.5.5-11.8 1.3-13.5 2.4-1.4.9-3.6 1.6-5 1.6-7 0-7.7 3.6-.8 4.5 2.6.3 9.6 1.5 15.7 2.6 6 1.1 17.7 2.4 26 2.9 8.2.5 19.5 1.5 25 2.1 10.4 1.2 39.7.6 53-1.1 3.9-.5 10.3-.9 14.3-1 6.8 0 9.4-1.2 5.6-2.7-.8-.3-16.9 0-35.8.6-23.5.8-35.1.9-37 .2-1.4-.6-9.7-1.5-18.4-2.1-16-1.1-25.3-2.3-30-4.1-2.5-1-2.6-1.1-.8-2.1 1.3-.7 9.6-.8 25.7-.3 24.5.7 84.5-.8 99.2-2.5 6.7-.8 8.7-.7 13.5.9 8.6 2.9 21.1 4.3 37.7 4.3 16.9 0 24.1-1.1 28.5-4.4 2.9-2.1 3.3-2.2 12.8-1 13.1 1.6 22.2 1.5 29.5-.4 4.1-1 8.1-1.4 12.1-1 3.4.4 8.8.8 12.1.9 7.6.4 9.9 1.9 13.2 8.5 3.7 7.6 3.7 16.9-.2 24.7-3.2 6.6-5.5 7.8-13.4 7-3.1-.3-31.7-1-63.6-1.5-45.9-.7-58.9-1.1-62.5-2.3-3.5-1.1-4.1-1.6-2.7-2.2 2.4-1 2.1-3.4-.5-3.9-18.3-3.6-42.8-4.9-42.8-2.3 0 1.4 28.9 6.8 36.2 6.7 4.7 0 5.8 1.6 1.7 2.4-4.7.9-31.4.6-39.4-.4-3.8-.6-16.7-1.7-28.5-2.5s-23.3-1.9-25.5-2.4c-6.2-1.5-33.6-3.5-37.7-2.7-3.7.7-6.1 2.7-4.1 3.3.6.2 1.9 1.1 2.9 1.9 1.7 1.4-1.7 1.5-34.5 1-41.4-.6-40.3-.8-47.4 7.8-2.9 3.5-4.5 4.6-6.7 4.6-3.3 0-5 2.3-5 6.5 0 1.4-.7 5.9-1.5 10l-1.6 7.4 4.3 5.5c2.4 3 5 6.5 5.9 7.8 1.8 2.5 32.9 24.2 40 27.8 2.4 1.3 7.9 4.5 12.2 7.3 4.3 2.7 10.8 6.2 14.5 7.7 13.8 5.6 24.6 12 35 20.8 2.9 2.4 8.8 6.3 13 8.7 12.6 6.9 22.6 12.7 24.5 14.3 3.2 2.8.2 3.3-7.4 1.2-6.2-1.7-7.5-1.8-8.7-.6-1.1 1.1-.9 1.7 1.3 3.4 1.4 1.1 5.6 3.1 9.3 4.3 12.4 4.1 20.7 7.7 28.2 12.3 5.8 3.6 7.6 4.3 7.8 3.1.6-2.5 5.1-1.7 16.5 2.9 12.5 5.1 26.8 13 34.7 19.1 6.2 4.8 24.3 15.5 43 25.4 8.7 4.6 14 8.2 18 12.1 3 3 6.9 5.9 8.5 6.5 4.8 1.6 7.8 8.4 7.2 16.5-.2 3.9-1.2 8.2-2.5 10.6-4 7.9-16.9 18.4-22.6 18.4-5.9 0-19.6-10.4-19.6-14.9 0-2.3-1-3.1-8.9-7.3-5.8-3-13.2-10-11.9-11.3.3-.3 2.5.4 4.9 1.5 5.2 2.3 6.9 2.5 6.9.6 0-2-5.8-6.1-15.7-11-13.7-6.8-20.8-8.9-29.1-9l-7.3-.1-8.6-7c-11.5-9.3-15.2-11.8-25.8-17.2-4.9-2.5-11.1-6-13.6-7.9-2.5-1.8-10.1-6.3-16.9-9.9-13.2-7-24.8-14.4-27.1-17.1-1.2-1.5-1-1.6 2.6-1.2 6.8.9 20.4 5.5 24.3 8.2 2 1.4 6.2 4.6 9.2 7.1 6.1 5.1 15.6 10 21.3 11 2 .4 5.7 2.2 8.1 4.1 2.5 1.9 5.7 3.4 7.1 3.4 6.9 0 13.2 6 10.7 10.1-1.9 2.9-.9 3.6 6 4.4 5.3.6 7 1.3 10.2 4.3 3.7 3.2 4 3.4 5.2 1.7 1.7-2.3 9-1.5 15.4 1.8 11.9 6.2 21.7 12 26.5 15.7 2.8 2.2 5.9 4 6.9 4 2.3 0 4.3-4.6 3-6.8-1.8-2.8-7.5-6.2-10.4-6.2-1.5 0-9-3.1-16.6-6.9-7.7-3.9-17.5-8.1-21.9-9.6-8.9-2.9-10.3-3.7-19.5-11.1-3.6-2.8-11.2-7.8-17-10.9s-13.5-7.9-17.1-10.6-12.4-7.9-19.5-11.7c-7.1-3.7-17-9.5-21.9-12.9-11.9-8-32-19.3-46.2-26l-11.6-5.4-2.1 2c-1.2 1.2-2.7 2.1-3.3 2.1s-4.6-2.9-9-6.3c-10.7-8.8-20.7-15.5-27.8-18.8-5.9-2.9-12.2-3.7-14.1-2-1.2 1.1-8.2 2.2-15.9 2.4-6.5.2-7.2 1.2-3.4 5.3l2 2.1-12.6-.5c-15.2-.6-19.4.6-24.3 7-2.5 3.3-3.1 4.8-2.7 7.2.3 1.7 1.4 9.8 2.4 18.1 1.5 12 2.6 16.7 5.4 23.5 1.9 4.7 4 10.1 4.6 12.1 1.7 5.4 12.7 24.1 20.5 34.9 9.7 13.5 33.5 61 40.4 80.6 4 11.5 9.2 20.1 20.7 34.1 2.7 3.3 7.9 10.5 11.4 16 6.7 10.4 42 73.9 47.9 86l3.4 7.3-1.3 6.7c-1.6 8.4-3.1 11.8-7.5 16.3-1.9 1.9-4.3 4.4-5.3 5.5-1.1 1.1-4.7 3.1-8.1 4.4-7.4 2.8-10.9 2.4-17.7-2.2-4.2-2.8-5.5-4.6-10.5-14.7-6.6-13.3-7.6-17.7-2.5-11.7 1.8 2 3.5 3.7 3.9 3.7s1.4-1.1 2.3-2.3c2.2-3.4.6-7.4-11.1-26.9-5.3-9-10.4-17.8-11.1-19.7-1.3-3.1-1.3-3.6.2-4.7 1.6-1.2 1.3-2.1-2.9-10.9-2.5-5.2-5.2-12.4-6.1-15.8-3.6-14.8-23.3-48.8-46.9-81.2-11.2-15.4-11.5-15.7-12.9-15.2-1.3.4-1.4 3.5-.3 8.2.7 2.8.6 2.9-.7 1.2-.8-1-2-5.7-2.7-10.5-1.8-13.8-4.6-23.6-9.4-33.5-5-10.1-19.3-33.1-25.9-41.5-2.3-3-5.9-7.6-8-10.3-2-2.6-6.8-7.3-10.5-10.3-3.7-2.9-8.4-7.3-10.6-9.5-7.3-7.9-15.2-10-23.1-6.1-8.9 4.4-20.6 13.6-24 19-2.1 3.2-2.4 5.5-3.4 24.6-1 20.3-1.5 24.4-3 24.4-.3 0-2.1-2.5-3.9-5.5-2.2-3.7-4-5.5-5.3-5.5-2.6 0-2.4 2.2.7 9.5 1.4 3.4 2.9 9.6 3.4 14.3.5 4.5 1.4 9.7 2 11.5 1 2.7.8 4.7-1.3 12.7-3.1 11.6-8.1 39-10.2 56.2-1.7 13.9-2 26.7-.6 25.2.9-1 1.8-6.3 6.2-36.3 1.6-11.2 3.3-21.1 3.8-22 .8-1.4 1.1-1.2 1.9.9 1.5 4 2.7 26.4 2.2 40-.8 21.4-.5 50.6.8 73.5 1.4 23 .5 58-1.9 73-.6 4.1-.9 17.4-.7 31.9l.3 24.9-2.5 1.8c-2.2 1.6-16.6 5.3-19.5 5-.5-.1-4.6-.5-9-1-8.8-1-12.3-2.1-16.7-5.3-2.5-1.7-2.9-2.6-2.4-4.9.4-2 .1-3.1-1.1-3.8-1.4-.7-1.6-2.7-1.4-13.6.3-17.5 1.6-19.9 2.4-4.3.3 8 1.1 13.9 2.2 16.4 1.4 3.5 1.7 3.6 3.2 2.2.9-.9 2.8-5.2 4.2-9.5 2.4-7 3-7.9 5.9-8.7 1.7-.6 3.4-1.6 3.7-2.4.5-1.5-1.6-37.7-3.5-60.4-1.3-15.4-1.3-22.4.2-24.8 1-1.5 1-2.2 0-3.2-.6-.6-1.2-2.6-1.2-4.3s-.7-4.1-1.6-5.3c-2.5-3.7-3.3-18-3.4-60.7 0-32-.3-41.6-1.6-48-1.4-7.3-1.3-15.5.2-20.8.9-2.8 2.2-1 3 3.8.3 2.5 1 4.5 1.5 4.5s.9-.5.9-1c0-.6.4-1 .8-1 .5 0 1.2 7.4 1.5 16.4.4 9 1.4 23.1 2.3 31.2 1 9.6 1.4 18.4 1 24.9-1 16.5-1.5 53.7-.6 42 1.7-22.5 2.3-72.1 1.1-95-2-38.2-3-50.3-4.8-54.8-1.2-3-1.8-9-2.2-21-.6-16.8-.6-16.9-3.3-19-2.6-2.2-2.6-2.5-3-15.7-.3-12-.6-14-2.8-18.5-3.4-6.7-9.1-9.6-20.4-10.2-11.3-.7-15.1.8-18.8 7.1-1.7 2.8-2.6 5.6-2.3 6.7.9 2.6 9.9 6.6 18 8 10.2 1.7 12.1 2.9 13.5 8.8.9 3.9.8 31.5-.5 125.8-2.7 199.4-2.8 205.1-4.8 207-2.5 2.6-10.7 1.9-21.3-1.6-6.8-2.2-12.4-3.3-22.5-4.1-17.2-1.5-21.5-2.4-26.6-6-2.3-1.7-4.6-3-5.2-3s-4.2-1.4-7.9-3.1c-5.9-2.7-7.4-3-12.7-2.5-11.1 1.1-13.5.8-22.5-3.4-4.8-2.2-9-4-9.4-4-.3 0-4.7-1.6-9.6-3.5s-10.7-3.5-12.7-3.5c-4.3 0-10.2-2.5-16.5-6.8-2.4-1.6-8.2-5-12.9-7.5-11.8-6.4-12.5-7.4-11-13.9 2-8.8 12-26.4 17-30.1 2.7-1.9 3.2-4.4 1.2-6.8-1.7-2.1-1.6-2.3 2.7-8.8 2.4-3.6 8.2-14.2 12.9-23.5 8.8-17.7 10.5-20.8 26.3-47.6 5.4-9.1 15.9-27.5 23.5-41s16.4-28.8 19.5-34c3.2-5.2 10.7-18.1 16.8-28.5 6.1-10.5 17.4-29.5 25.1-42.4 7.8-12.9 14.1-23.8 14.1-24.3 0-2.1-4.2-.4-8.1 3.5-11.9 11.6-21.5 24.8-29.8 40.9-3.2 6.2-7 13.5-8.4 16.3-1.5 2.7-4 7.9-5.7 11.5-1.6 3.6-6.1 10.8-10 16-13 17.7-16.3 23.2-20.1 33.4-5.2 14.1-7.1 18.3-11.3 24.8-2 3.2-4.1 6.9-4.6 8.3s-3.4 6.7-6.3 11.8c-3 5.1-7.5 13.2-10.2 18.2-2.6 4.9-5.9 10.5-7.2 12.3-1.4 1.8-6.3 10.5-10.9 19.2-4.6 8.8-12 22.1-16.5 29.7l-15.8 26.7c-4.4 7.4-8.5 13.3-9.8 13.9-2.8 1.3-9.4-1.9-16.2-7.9-3.6-3.2-5.7-4.2-9.6-4.8-2.7-.3-5.8-1.4-6.8-2.4-1.7-1.7-1.6-2.2 3.1-10.8 2.7-4.9 8.6-16.3 13.3-25.4 4.8-9.5 11.7-21.2 16.3-27.5 12.9-17.7 16.6-23.5 16.6-25.6 0-4.1-4.2-1.1-10.6 7.6-2.6 3.6-4.9 6.3-5.2 6.1-.5-.6 6.1-11.9 10-17.1 1.6-2.2 6.8-10.3 11.5-18 10.1-16.5 12.2-19.1 17.7-22.6 5.6-3.5 10.5-9.2 15.7-18 2.3-4.1 6.8-11.2 10-15.9 7.4-10.9 18.3-31.2 22-40.9 6.7-17.5 17.8-34.9 26.1-40.8 7.5-5.5 15.4-19.7 18.4-33.3 1-4.1 2.7-8.9 4-10.6 2.7-3.5 3-6.2 1.2-11.2-1.2-3.1-1.1-3.5 1.1-5.3a10 10 0 0 1 5.2-1.9 8 8 0 0 0 5-2.1c1.6-1.6 2.8-1.9 4.7-1.4 1.5.4 4.2.6 6.1.6 2.2-.1 7.8 1.9 16 5.8C593 801.5 621.3 808 650 808c13.6 0 22.3-1.3 30.5-4.4 3.3-1.3 9.8-3.6 14.5-5.1 21-6.6 32.4-12.3 51.1-25.1 17.7-12.3 25.3-20.5 41.4-44.9 6.2-9.4 10.5-17.5 14.1-26.5 4.7-11.6 9.5-26.3 11-33.9 4.4-22.6 1.9-57-6.1-83.6-6.5-21.6-29.7-59.6-42-69.1-2.7-2.1-8.3-6.6-12.3-10.2-9.9-8.6-20.9-15.6-37.9-24.1-7.9-3.9-14.3-7.6-14.3-8.1 0-.6.4-1 .8-1 1.5 0 5.3-4.1 4.7-5.1-.4-.5-2.1-.9-3.8-.9-3.3 0-7.7-2.3-7.7-4 0-.6 1.7-1.7 3.8-2.5 4.7-2 17-10.5 24.2-16.6 3-2.6 6.7-5.2 8.1-5.8 1.8-.6 4.4-3.8 8-9.8 2.9-4.8 9.4-14.9 14.4-22.3s10.6-16.3 12.4-19.7c3.5-6.5 9.6-14.3 11.2-14.3 1.7 0 .9 7.1-1.6 13.2-1.4 3.3-4.5 9.5-7 13.8-5 8.5-5.6 10.3-2.4 7.4 6.1-5.5 15.2-25 22.3-47.7 4.2-13.6 9-24.6 13.7-31.4 4.8-7 21.8-27.3 22.9-27.3 1 0 .1 3-2.6 8.1-2.1 4.2-.8 5.1 2.2 1.4 8.1-10.1 19.7-40.6 16.6-43.7-2.1-2.1-1.4-4 5.9-16.6 5.9-10.2 7-12.9 6.5-15.3-1.1-5.6 5.2-14.7 9.3-13.4 2.7.8 2.6 2.4-.4 7-1.5 2-2.5 3.9-2.3 4.1 1 .9 13.3-8.3 15.8-11.8 3.7-5 3.7-5.8.4-5.8-1.4 0-3.8-.8-5.2-1.8-1.5-.9-3.6-2.2-4.7-2.8s-2.1-2.2-2.3-3.5c-.3-3.2 15.9-32 20.8-36.8 2.9-2.8 3.9-4.7 4.4-8.3 1.3-8.6 4.5-9.2 20.6-3.6zm-504.6 20.1c8.5 8.4 11.2 12.4 16.4 24.6 2.2 4.9 5.5 11.1 7.4 13.8 1.9 2.6 5.3 8.2 7.6 12.4s6.5 10.7 9.3 14.5c6.2 8.2 10.7 17.6 14.4 29.9 3.5 11.5 4.4 13.2 11.3 20.9 3.1 3.5 7.8 9.9 10.3 14.2 2.6 4.3 8.9 15.1 14.1 23.9 17.4 29.4 24.6 43.5 26.2 51 2.4 11.6 10.7 40.9 12.1 43.2.8 1.1 3.7 2.9 6.5 3.8 5 1.6 5.3 2 8.5 8.9 3.2 7 3.3 7.1 4.4 4.3 1.4-3.5 2.2-3.4 4.6.5 4.2 7 .7 22.7-6.1 27.5-3.6 2.5-10 4.7-11.4 3.8-.5-.3-1-2.1-1-4 0-2.3-.5-3.5-1.8-3.9-.9-.3-5.4-6.8-9.8-14.3-4.5-7.6-10.8-17.4-13.9-21.8-3.3-4.6-6.7-10.8-8-14.5-2.9-8.6-8.8-20.2-18.7-36.9-12-20.2-15.1-24.3-26.7-36.5l-10.6-11.1-5.3-13.8c-6.1-15.7-11.3-27.3-13.6-30.2-1.5-2-1.5-1.9-1.6.7 0 1.6-.4 2.8-.9 2.8-1.1 0-14.5-20.5-17.1-26.2-1.1-2.5-2-6.5-2-9.7 0-7.5-1.7-12.2-6.2-17.7-2.2-2.7-4.7-6.2-5.5-7.9-.9-1.6-3.7-5.9-6.3-9.5s-7.1-10.6-10-15.5c-2.9-5-6.7-10.8-8.5-13-5.8-7.3-6-8-1.9-10.4 6.1-3.6 8.6-2.6 14 6.1 2.3 3.7 14.2 19.9 18.1 24.6.7.9 1.6 1.3 1.9.9 1.1-1.1-1.7-6.7-7.4-15.1-6.8-9.9-9.2-15.1-9.1-20.1 0-5.7 3-9 7.2-7.8 1 .2 5.1 3.7 9.1 7.6zm-50.6 24.4c1 1.6 8.3 14.5 16.2 28.8C408.8 300 443.2 361.6 471.3 411c36.8 64.7 33.7 59 33.7 61.8 0 4.2-3.9 10.2-8.7 13.3-2.6 1.6-5.2 2.9-5.9 2.9-2.2 0-6.3 4-6.9 6.9-.6 2.6-1.1 2.9-6.1 3.6l-5.6.7-20.6-11.8c-11.4-6.5-23.2-13.4-26.2-15.3s-26-15.9-51-31.1-59.9-36.6-77.5-47.5-43.9-27.1-58.5-36-28.6-17.5-31.2-19.1c-5.2-3.2-5.8-4.6-2.9-6.6 1.1-.8 3-3.9 4.4-7 4.1-9.2 25-33.8 28.8-33.8.9 0 3.7-2.4 6.1-5.3 2.3-2.8 4.7-5.4 5.1-5.5 2-.9 13.7-16.7 13.7-18.5.1-3.2 18-19.7 21.3-19.7 4 0 5.7-1 5.7-3.4 0-2.7 3.6-8.6 5.2-8.6.7 0 3.4-1.1 6-2.5s5.1-2.5 5.5-2.4c2.1.4 3.8-.7 12.8-8.1 15-12.5 26.9-19.9 31.7-20 .9 0 2.5 1.2 3.6 2.7zM372 209c.7 1.8 2.4 3.6 3.7 4.1 2.1.8 2.3 1.5 2.3 6.9 0 3.3-.4 6-.8 6-.8 0-6.2-8.8-9.7-15.8-.9-1.9-1.4-4-1.1-4.8.9-2.2 4.1-.1 5.6 3.6zm-157.5 9.5c3.5 7.1 10.3 15.3 22.6 27.2 6.5 6.4 11.9 12.4 11.9 13.3 0 1-1.5 3.5-3.4 5.6-1.9 2.2-6.7 7.7-10.8 12.4-5 5.8-9.1 9.3-12.5 11.1-8.9 4.5-22.7 18-29.8 29.1-3.5 5.5 1.1 3 10.1-5.5 4.8-4.5 8.5-7.5 8.2-6.6-.9 2.3-10.4 15.4-16 22.1-5.7 6.7-13.5 18.4-18.5 27.6-2 3.7-5.7 9.6-8.3 13.2s-5.3 8.3-6 10.5c-1.8 5.8-3.9 9.6-6.8 12.7-2.3 2.5-2.6 2.6-3.9 1-1.2-1.6-1.4-1.6-3.2.5-1 1.2-2.6 4.6-3.6 7.5-.9 2.9-2.8 7.2-4.2 9.5-1.3 2.3-2.3 5-2.1 6 .3 1.2 2.3-1.1 6.4-7.4 3.2-5.1 6.2-9.3 6.6-9.3 1.5 0-2.1 8.9-6.4 15.5-2.4 3.8-6.1 10-8.2 13.7-2.1 3.8-4 6.8-4.3 6.8-.9 0 .7-8.2 2.3-11.6 1.4-3 1.4-3.5 0-5.6-.9-1.2-1.6-3.7-1.6-5.5s-.4-3.3-.9-3.3c-.9 0-1.5 2.7-2.6 11.5-.4 2.7-1.4 7.2-2.2 9.9l-1.6 5 2.7 2.1c1.4 1.1 2.6 2.5 2.6 3 0 .6-1.6 4.1-3.5 8-5.3 10.7-8.7 23.4-8.9 33.9-.2 5-.7 9.1-1.3 9.3-3 1-4.4 3.7-6.6 12.3-1.4 5.2-3.6 12.7-5.1 16.7-1.4 3.9-3.3 11.8-4.2 17.5-.8 5.6-2.4 15.5-3.5 21.8-1 6.3-2.4 14.9-2.9 19s-1.7 11.1-2.5 15.5c-2.1 11.4-1.9 15 .7 17.4 2 1.9 2.2 3.4 3 23.3.5 11.7 1.2 36.4 1.7 54.8.7 28.8 1.2 35.8 3.5 50 3.1 19.5 2.9 18.4 7.1 28.5 1.9 4.4 4.5 12.5 5.9 18 4.9 19.2 13.5 41.7 26.1 68.4 4.8 10.1 8.7 19.3 8.6 20.5 0 1.1-.3 5.9-.6 10.6-.4 5.9-.2 9.2.7 10.9 1.9 3.5 3.2 2.7 3.8-2.4.3-2.5 1-4.6 1.5-4.6.6-.1 2.1 2.5 3.5 5.8 1.4 3.2 5.4 10.1 9 15.2 9.9 14.2 12.8 19.1 14.7 24.6 2.1 6.4 3.6 8.8 9.7 15.5 2.8 3.1 7.9 9.6 11.3 14.5 6.7 9.7 29.5 37.4 42.8 52 4.5 4.9 9.5 11 11 13.5s3.7 5.6 4.9 7c4.6 5.5 33.6 31.5 40.9 36.7 4.2 3 7.7 5.8 7.7 6.3 0 1.7 6.5 7.3 15.4 13.2 5 3.4 12.4 8.7 16.4 12 4 3.2 7.9 5.8 8.6 5.8s2.8 1.2 4.7 2.6c5.7 4.3 18.6 10.4 29.7 14 5.7 1.8 11.9 4.4 13.6 5.7s10.5 6.1 19.6 10.6c9.1 4.6 17.9 9.1 19.5 10.1 1.7 1.1 9.1 3.5 16.5 5.5 7.3 2 16.4 5.2 20.2 7.1 3.7 1.9 7.5 3.4 8.5 3.4 2.6 0 11.5 4.4 13.4 6.6 1.6 1.8 1.6 2.4 0 8.4-1 3.6-3.2 8.7-4.9 11.3-4.2 6.6-8.1 16.7-9.5 24.6-1.1 6-1.4 6.6-3.9 6.9-1.4.2-10.9-2.4-21-5.7-10.2-3.4-21.1-6.6-24.4-7.2-6.3-1.2-18.1-6.6-59.4-27.1-39-19.4-60.4-32.3-88.5-53.5-36.3-27.4-61.8-50.9-94.1-86.8-49.9-55.5-81.9-108.4-115.5-191.1l-7.3-17.9-.2-10c0-5.5-.6-11-1.2-12.1-.6-1.2-2.7-8.2-4.6-15.5-2-7.4-5.1-17.9-7-23.4-1.9-5.8-4.5-16.7-6-26-7.4-45.7-8.7-54.3-10.1-69.5-1-9.9-1.6-26.1-1.6-41 .1-13.5.1-27 .1-30s1.1-12.3 2.4-20.5c4.4-26.7 5.1-32.8 4.9-44.5-.2-9.4.3-14.5 2.8-27.4 6.6-34.3 15.2-63 24-80.2 3.2-6.2 7.7-16.6 10-23.1 2.2-6.5 7.2-18.3 11-26.3 3.7-8 7.3-16.8 7.9-19.5 2.4-10.3 3.6-13.2 8.3-20.3 2.6-4 9.3-15.3 14.8-25 10.7-18.7 27.5-45 31.4-49.2 1.3-1.4 5-6.4 8.2-11.1 9.3-13.7 34.4-42.6 41.8-48.1 5.1-3.7 7.5-3.3 10 1.7zm177.7 10.4c3.1 4.9 3.6 8.1 1.3 8.1-1.8 0-6.2-6.4-7.4-10.8-1.8-6.1 1.3-4.7 6.1 2.7zM836 275.7c0 2.3-4 10.3-5.1 10.3-1.6 0-1-4.1 1.3-8.1 2.3-4.1 3.8-5 3.8-2.2zm-202.4 72.8c.6 10.3.4 12.5-1 15.3-1.5 2.9-1.6 4.2-.6 10.5 1.3 7.9 1 14.7-.5 14.8-.5 0-1.4-2.4-1.8-5.3-.8-5.6-.1-40.8 1-49.3l.7-5 .8 3.5c.4 1.9 1.1 8.9 1.4 15.5zM469 358.7c4.1 4.6 32.7 50.9 33.7 54.5.7 2.5-2.7 2.3-6-.2-1.4-1.2-4.9-6.4-7.8-11.8a671 671 0 0 0-14-24.7c-9.1-15.6-12.5-22.5-11.1-22.5.5 0 2.8 2.1 5.2 4.7zm-240.7 2c10.9 6.6 19.1 13.3 17.9 14.5-1.4 1.4-7.8-1.8-10.2-5.2-1-1.5-4.8-4.4-8.4-6.5-6.9-4-13-9.5-9.1-8.1 1.1.4 5.5 2.8 9.8 5.3zm-30.7-.3c1.1.9 2.9 1.2 4.2.9 3.2-.8 6.8 1.4 9.4 5.5 1.1 1.8 3.9 4.5 6.2 6 2.2 1.4 6.7 4.6 9.8 7 13.6 10.2 85.7 52.6 101.3 59.5 4.9 2.2 15.5 7.9 23.5 12.7s15.6 9.1 17 9.5c2.8.9 6.5 3.3 13 8.6 2.5 2 8.5 6 13.4 8.9s15.5 10.1 23.5 15.9c19.8 14.2 28.4 19.1 33.8 19.1 3 0 6.6 1.2 12.8 4.4 4.7 2.5 9.3 5 10.1 5.7 2.2 1.8-.2 2.9-5.1 2.4l-4-.5 4 1.5c4.4 1.7 9.5 6.1 9.5 8.2 0 .8-1.3 4-3 7.2-4.1 8.1-11.6 14.1-17.7 14.1-2.4 0-5.8-.6-7.6-1.4-5.3-2.2-26.7-16.9-35.7-24.6-4.7-3.9-11.4-8.8-15-10.8s-9.2-5.5-12.5-7.8c-8.1-5.6-12.9-7.9-22.7-11-9.3-2.9-15.3-6-41.6-21.6-19.3-11.5-25.4-16-23.7-17.6 1.5-1.4 25.4.3 29.7 2.1 2 .8 7.1 3.9 11.4 6.9 4.4 2.9 12.9 7.5 18.9 10.2 12.9 5.7 15.2 7.2 22.3 14 2.9 2.8 5.2 4.4 5.2 3.6 0-5-11.7-14.2-29.5-23.3-6.6-3.4-15.5-8.5-19.7-11.3-9.2-6.3-12.6-7.4-23.8-7.4-9.9-.1-14-1.3-20.8-6.4-6.2-4.5-7.8-4.7-5.7-.6 1.3 2.4 1.3 3 .2 3-2.2 0-22.9-12.7-29.7-18.2-4.8-3.9-6.4-4.7-7.5-3.8-1.7 1.4-3.3.6-11.8-5.6-4.1-3.1-6.9-4.4-9.2-4.4-3.2 0-3.9-.4-15.8-9.8-3-2.3-8.3-5.4-11.8-6.8-8.6-3.5-24.6-13-25.9-15.4-3.3-6.2 2.4-17.9 10.3-20.9 2.1-.8 2.7-1.7 2.7-3.9 0-4.9 3.6-6.7 7.6-3.8zm260.6 9.3c2 2.3 6.6 11.4 8.4 16.7 1.4 4 1.4 4.1-.4 1.8-2.9-3.8-11.4-20.2-10.4-20.2.5 0 1.6.8 2.4 1.7zm602.8-.9c0 2-9.1 8.2-12 8.2-1.9 0 0-2 5.4-5.5 5.3-3.5 6.6-4.1 6.6-2.7zM180 402c3.6 2.2 9.4 5.1 12.9 6.5 3.5 1.5 13.4 7.1 22 12.4 8.6 5.4 20.8 12.9 27.1 16.6 6.3 3.8 14 8.5 17 10.5 5.2 3.5 96.9 58.7 113 68 4.1 2.4 12 7.1 17.5 10.5s18.8 11.4 29.5 17.7c19.5 11.6 22.2 13.6 23.3 17.3.3 1.1 1.5 4.5 2.6 7.5 3.8 10.4 2 21.2-4.5 27.1-5.1 4.6-12.6 8.1-19.1 8.9-6.9.9-110-.2-185.3-2-26.7-.6-64.2-1.4-83.5-1.8-24.6-.6-35.7-1.2-37.2-2-1.7-.9-2.3-2.2-2.3-4.5 0-4.9 2.6-22 7-45.2 2.2-11.6 4.5-24.2 5-28 2.5-16.2 17.6-65.5 25.8-84.1 6.8-15.4 20.2-39.4 22-39.4.3 0 3.5 1.8 7.2 4zm96.6-1.6c11.7 4 20.5 9 28.4 16.4 4.1 3.8 7.2 7.3 6.8 7.8-.5.4-3.8-.9-7.5-2.8-3.8-1.9-12-6.2-18.3-9.4-11.2-5.8-20.3-11.4-21.5-13.4-1.1-1.8 4.9-1.1 12.1 1.4zm258.4 1.8c4.6 7.2 10 17.5 10 19 0 2.4-4.4 2.4-6.8 0-1.6-1.6-6.2-16.7-6.2-20.2 0-1.7 1.4-1.1 3 1.2zm590-.7c.7.8 1 2.7.7 4.2-.7 3.7 2.3 15.1 6.6 24.8 10.2 23.2 24.2 67.3 28.3 89 4.7 25.4 6.2 34.8 8.4 51.6 2 16.2 3.1 38.2 1.9 39.4-1 .9-270.5-1.4-278.9-2.4-8.4-1.1-30.3-7.2-35.9-10.1-6.3-3.2-9.9-8-14.6-19.6-4.9-12-5.3-14.4-2.7-16.6.9-.9 12.3-7.8 25.2-15.3 12.9-7.6 25.4-15.1 27.7-16.7 2.3-1.5 9.3-5.4 15.5-8.6 19.4-10 40.9-22.3 59.3-33.9 9.9-6.3 53.4-30.8 63.4-35.8 4.1-2.1 12-6.7 17.6-10.4 5.6-3.6 13.8-8.6 18.3-11.1 7.8-4.3 32-18.6 44.6-26.3 6.5-4 12.4-4.9 14.6-2.2zm-628.3 34.4c.9 2.5 3.6 6.8 5.9 9.4 4.4 5.1 13.4 21.3 13.4 24.1 0 2.5-1.9 1.9-3.3-1.2-.6-1.5-2.7-4.8-4.5-7.4-5.9-8.4-20.2-33.4-20.2-35.5s7.2 6.7 8.7 10.6zm123.6-5.3c-.6 7.5-2.5 9.3-3.8 3.4-.7-3.2 1-7.3 2.8-6.7.7.2 1.1 1.7 1 3.3zm-100.2 19.6c5.1 6.4 9.9 16.6 9.9 20.9 0 3.6-1.9 3.5-3.7-.2-8.4-17.5-12.1-25.9-11.3-25.9.5 0 2.8 2.4 5.1 5.2zm119.1 4.5c2.7 2.4 2.2 4.3-1.1 4.3-3.2 0-5.6-2.2-4.7-4.5.7-2 3.5-1.9 5.8.2zm-59.7 6.4c.9 1.4-2 4.4-6.2 6.4-3.2 1.5-3.7 1.6-5.1.2-1.3-1.4-1.3-1.8-.1-3.3 2.8-3.4 10.1-5.5 11.4-3.3zm53 4.9c1 1.5-4 3-10.2 3-6.6 0-6.3-.8.9-2.6 6.7-1.6 8.5-1.7 9.3-.4zm47 2c3.7 1.8 4.5 2.4 3 2.7-2.8.5-19.5-3.3-20.9-4.7-2-2.2 12.4-.6 17.9 2zm-21.8 8.5c2.1.9 6.6 1.5 11 1.5 21.4 0 48.8 10.8 72.8 28.6 22.9 17.1 36.8 33.5 49 57.9 11.7 23.5 17.5 47.2 17.5 71.8 0 13.3-3.7 43.7-6.1 51-6.2 17.9-17.5 39-27.5 51-5.2 6.2-19.5 19.5-34.2 31.5-13.4 11-45.4 24.8-69.2 29.9-13.2 2.8-46.9 2.5-60.7-.5-27.6-6-52.9-18.6-74.8-37.4-13.6-11.6-17.6-16.2-27.4-30.8-19.2-28.8-28.1-58.3-28.1-93.5 0-30.7 7.2-57.3 22.5-82.7 12.9-21.4 24.8-34.5 44.1-48.4 16.7-12 46.3-25.2 63.9-28.4 17.3-3.1 41.4-3.9 47.2-1.5zm130 10.7c3.3 3.2 4.3 5.8 2.2 5.8-1.5 0-6.9-5.9-6.9-7.6 0-2.1 1.1-1.7 4.7 1.8zm441.3 17.1c4.1 1.4 7.4 6 9.5 13.1 1.6 5.4 6.6 45.1 8.6 68.3 2.6 30.2 1.3 93.3-2 96.6-1.7 1.7-2.3-5.6-3-36.5-.6-29.9-.7-31.8-2.7-34.4-3-4-4.9-4.4-4-.8 1.8 7.5 2.7 22.4 3.1 50.4.4 30.1.4 30.4 2.6 32.1 4.6 3.4 3.3 21.3-4.1 58-8.7 42.8-29.1 105.3-44.6 136.1-1.8 3.6-3.8 6.9-4.4 7.3s-2.4 3.4-4.2 6.8c-1.7 3.4-5.1 9.3-7.6 13.2-4.1 6.2-4.7 6.7-5 4.5-.5-3.4-1.8-4.6-3.5-3.1-.8.6-3.6 6.2-6.2 12.4-5.6 12.9-9 18.6-16.6 27.7-6.4 7.6-8.9 11.1-8.9 12.4 0 2.2 10.7-9.6 20.1-22.2 9.7-12.9 13.5-16 10.3-8.4-6.1 14.9-36.6 61-56.3 85.2-33.2 40.9-64.6 72.1-103.4 102.8-34 26.9-99.3 64.4-140.7 80.7-28.2 11.2-70.7 24.3-98 30.4-14.5 3.2-42.4 7.7-64 10.3-17.6 2-23.9 2.3-63.5 2.3-51.2 0-58.7-.6-100.5-7.6-31.9-5.4-43.8-8.1-47.3-10.9l-2.2-1.8 2.3-2.5c1.7-1.8 2.7-4.8 3.8-10.8.9-5.2 2.1-9.1 3.3-10.3 2.8-3 4.3-7.5 3.6-10.7-.4-1.8-.1-3.7.9-5.1.9-1.2 1.6-3.5 1.6-5 0-1.7.6-2.9 1.9-3.3 1-.3 8.8.8 17.2 2.4 8.5 1.6 18.7 3.2 22.6 3.6 9.3.8 26.8 5 30.7 7.4 2.1 1.2 6.1 2.1 12.1 2.5 5 .4 16.3 1.5 25.3 2.4 13.5 1.5 16.2 1.5 16.2.4s2.1-1.4 9.3-1.3c19 .1 55.8-.7 59.4-1.3 2.1-.3 8.8-1.1 15-1.6 6.1-.6 13-1.7 15.3-2.5 2.4-.8 7.1-1.5 10.5-1.5 4.5 0 6.9-.5 8.6-1.9 4.4-3.3 6.7-4.1 15.6-5 12.4-1.3 21.5-4.4 25.8-8.6 2-2 4.4-3.5 5.7-3.5 2.2.1 2.2.2-.7 2.5-1.6 1.3-2.6 2.7-2.3 3.1.8.7 24.9-4.3 29.5-6.2 1.8-.7 4.8-2.5 6.7-3.9s8.2-4.2 14-6c12-3.9 18-6.8 27.5-13.1 4.3-2.8 8.5-4.7 12-5.4 7.4-1.4 20.8-7.9 39.1-19.1 16.9-10.4 21.8-12.6 29.8-13.9 3.2-.6 6.8-2.1 9.5-4 2.3-1.7 8.9-6.3 14.7-10.2 15.8-10.8 30-22.1 34.3-27.2 2.1-2.5 8.2-8.5 13.5-13.2 5.3-4.8 12.5-12.3 15.8-16.8 3.4-4.5 10.8-13.1 16.6-19.2 20.1-21.2 24.9-26.7 30.5-35.3 3.2-4.7 7.4-10.9 9.4-13.6 2-2.8 7.6-12.4 12.4-21.5 4.9-9.1 10.9-20.3 13.5-25 7.6-13.6 11.7-22.2 12.4-26 .3-1.9 1.9-5.1 3.5-7 5.3-6.6 9.4-16.1 20.1-47 6.8-19.5 9.7-26.6 14.5-35 1.4-2.5 2.5-6.1 2.5-8 .1-5.7 1.9-12.2 4.7-16.5 1.4-2.1 3.4-7 4.4-10.7 2.8-11.1 6.6-15 8-8.2.5 2.7.7 2.5 2.2-2.6 3.2-10.4 9.7-53.5 9.7-63.8 0-4.3-.4-5.7-2.2-7.2l-2.2-1.7 1.7-10.4c.9-5.7 1.9-13.1 2.2-16.4l.6-6-1.8 3.2c-1.9 3.7-3.3 4.3-3.3 1.4 0-3.3 2.2-8.1 3.6-8.1 3.1 0 4.4-6.4 4.2-19.3-.1-6.7.3-18.5 1-26.1l1.3-14-2.6-2.5c-2.2-2.2-2.7-2.4-3.5-1.1-.5.8-1 2.5-1 3.7 0 3.1-1.8 7.5-2.9 6.9-1.1-.7-2.8-10.5-3.6-20.6-.4-4.1-1.8-12-3.1-17.4-1.4-5.4-2.2-10.6-1.9-11.4.9-2.4 4.4 1.4 5 5.7 1.2 7 1.5 8 4.2 11.2 4.9 5.8 14 8.3 16.5 4.5 1.7-2.4.7-3.6-2.8-3.6-4.9 0-10.4-3.4-10.4-6.5 0-2.5 1.7-3.5 5.6-3.5s6.2-1.7 8.4-6c1.7-3.3 2.6-4 4.9-4s3.1.6 4 3c.5 1.6 1.6 3 2.4 3s1.7 1.4 2.1 3.2c.7 3.1.8 3.2 2.1 1.4 2.9-3.9 2.9-8.5.1-17.3-3-9.1-3.7-9.8-12.8-12.3-8.1-2.2-16.6.3-24.4 7.2-3.4 3-3.8 3.1-4.8 1.5-.6-1-2.1-3.1-3.4-4.5-2.7-3.2-4.1-7.7-4.9-15.4l-.6-5.6 5.4-2.7c4.7-2.4 5.7-2.6 8.5-1.6 3.8 1.4 6.3.6 13.6-4.4 4.4-2.9 6.2-3.5 10.3-3.4 2.7 0 6.6.5 8.5 1.2zm-705 .4c0 1.8-5.8 7.8-11.2 11.3-5.3 3.6-6.3 3.9-7.7 2.7-.9-.8-2.6-1.8-3.8-2.1-1.3-.4-2.3-1.1-2.3-1.5 0-1 5-2.1 9-2.1 1.9 0 4.6-1.5 8.1-4.5 4.8-4.1 7.9-5.6 7.9-3.8zm-50.1 4.7c1.5.8 3.4 2.2 4.2 3.2 1.3 1.6 1.1 1.7-1.9 1.1-3.3-.7-8.1-3.6-8.2-5 0-1.2 2.9-.8 5.9.7zm28.9 18.5c-.9 2.6-10 13.1-10.8 12.6-.6-.3-1-2.3-1-4.4 0-3.3.4-3.8 3.4-4.9 1.9-.7 4-1.9 4.6-2.7 1.3-1.6 4.4-2.1 3.8-.6zm-27.8 37c0 3.2-2.2 6.1-4.6 6.1-2.2 0-1.7-2.5 1.2-5.9 1.4-1.7 2.8-3.1 3-3.1s.4 1.3.4 2.9zm-11 35.6c0 4.2-4.7 9.4-7.1 7.9-1.5-.9-1-2.2 2.2-5.9 3.4-3.8 4.9-4.4 4.9-2zm738.8 16.6c.3 4.6-1.1 6.7-3.2 5-1.9-1.6-2.1-7.7-.3-8.4 2.3-1 3.2-.1 3.5 3.4zm-1075.1 1.4c6 2.1 31.8 2.4 35.3.5 3.2-1.7 15.5-1.9 17.1-.3 1.5 1.5-1.4 2.8-8.7 3.9-4.4.6-4.6.8-2.4 1.6 3.4 1.4 54.4.2 64.5-1.4 13.6-2.2 64.4-1.6 92.5 1.1 36.2 3.5 40.2 3.6 45 1.7 3.1-1.2 7.6-1.6 19.8-1.6 8.6-.1 18.8-.5 22.6-1 8.1-1 9.2-.7 11.1 3.1 2.7 5.1 9.4 4.5 8-.8-.5-2.1-.2-2.3 3.1-2.3 7.6 0 16.7 2.2 19.1 4.6 2.1 2.1 2.3 3.2 2.3 12.1 0 10.8-1.4 15.1-6.2 18.6-2.2 1.6-4.3 2-12 2-5.1-.1-11.3-.6-13.8-1.3s-10.1-1.4-17-1.6-16.8-1-22-1.9c-27.2-4.4-33.4-4.3-39.6.6l-3.7 2.9h-47.6c-26.2 0-57.5-.6-69.6-1.3-13.6-.7-38.7-1.1-65.6-.8-38.7.3-44 .1-46.7-1.3-4.3-2.2-6.4-6.8-7-14.9-.5-6.7-.4-6.9 2.7-9.7 1.7-1.6 3.1-3.8 3.1-5 0-3.1 1.7-5.8 4.8-7.4 3.4-1.9 5.7-1.9 10.9-.1zm937.8.1c1.7.7 1.6.9-1 1.6-3.8 1-35.5-1.2-35.5-2.5 0-1.2 33.6-.4 36.5.9zM301 667c34.4.5 69.3 1.4 77.5 2.1 14.4 1 40.1.8 47.5-.6 3-.5 4.4 0 10 3.7 7.6 5 10.4 9.7 11.5 18.7 1 8.7-.6 13.2-7.1 19.6-3.1 3-8.6 7.5-12.2 9.9-12.9 8.5-111.6 63.6-115.1 64.2-2 .4-5 1.9-6.6 3.3-4.8 4.1-25.3 16.2-97 57.1-17.6 10.1-34.7 20-38.1 22.1-7.1 4.5-8 4.7-8.9 1.6-2.3-8.3-11.2-26.2-15.7-31.4-5.1-6-11.1-17.3-12.3-23.3-.4-1.9-2.9-10-5.6-18-5.4-16.5-7.4-27.4-8.9-48-.5-8-2.1-22.4-3.5-32-3.2-21.7-4.3-45.7-2.4-48.2 1.3-1.5 2.7-1.6 14.9-.8 10.8.7 14.6.6 19-.5 5.9-1.6 20-1.5 153 .5zm655.5 3c135.3 1.4 155.2 2.2 174.5 7.5 6.2 1.7 17 1.9 27.4.5 7.4-.9 11.2-.1 12.3 2.6.9 2.3-6.7 50.6-9.7 61.9-1 3.8-2.8 11.7-4 17.4-2.9 13.7-15.3 52.1-22.4 69.1-5.3 12.7-5.6 13.8-5 19.3l.6 5.7-5.6 5.2c-3.1 2.8-6.7 7-8.1 9.4-1.6 2.8-3.3 4.4-4.5 4.4-3.6 0-54.3-29.3-68.8-39.7-7.9-5.8-11.3-7.6-24.2-13.4-4.1-1.8-19.4-10.4-34-19-14.6-8.5-31.9-18.8-38.6-22.7a724.9 724.9 0 0 1-26-16.3c-7.6-5-20.4-12.7-28.4-16.9-14.9-7.9-40.2-22.8-52.1-30.6-11.1-7.4-11.6-9.2-6.4-25.4 1.5-4.7 2.9-10.8 3.2-13.5.7-8 .4-7.8 9.1-7.1 4.2.3 54.1 1 110.7 1.6zm240.9 6.5c.9 2.5-.5 10.5-1.9 10.5-2.5 0-3.3-5.2-1.3-9.5 1.3-2.9 2.3-3.2 3.2-1zm1 21c-.2 5.8-2 15.3-3.4 17.5-2 3-3.1-1.1-2.7-9.5.6-9.6 2-13.8 4.5-13.3 1.4.3 1.7 1.3 1.6 5.3zM475.9 721c1 .5 2.6 2.7 3.4 4.9.9 2.2 2.5 4.2 3.6 4.6 1.1.3 3 1.8 4.1 3.2 3.8 4.8 1.9 18.7-2.9 21.2-.9.5-3.2 1.2-5.1 1.6s-7.5 3.1-12.5 6c-4.9 2.9-14.6 8-21.3 11.4-6.8 3.4-15 8-18.1 10.1-14.4 9.9-42.2 23.7-58.2 29-15.7 5.2-20.8 8-29.2 16.2-6.6 6.5-9.6 8.6-24.5 17.1-13.4 7.7-35.9 21.1-42.2 25.2-3.6 2.3-7.6 4.9-9 5.7-1.4.9-4 2.9-5.8 4.5-1.8 1.7-7.6 5.4-13 8.3-5.3 2.9-14.6 8.3-20.7 12.1-19.5 11.9-31.6 18.9-33 18.9-.7 0-4.3-3.3-7.9-7.4l-6.7-7.4 2.3-3.8c4.5-7.6 15-16.6 30.2-25.9 8.1-5 18-11.6 22.1-14.8 12.1-9.5 32.1-22.2 49.3-31.3 14.3-7.6 15.8-8.3 21.2-9.9 7-2.1 14.3-6.1 31.7-17.3 7.6-4.9 19-11.8 25.3-15.2 6.3-3.5 13.1-7.5 15-9.1 2-1.5 9.4-6.4 16.5-10.9 15.1-9.5 16.2-10.4 17.9-14.5 2.1-4.9 7.3-8.7 10.8-8 3.2.7 6.4-.9 20.8-10.5 11.2-7.5 14.2-9 18.2-9 2 0 5.1-1.2 7.8-3 4.8-3.2 7-3.6 9.9-2zm721.7 5.7c.9 3.6-1.1 13.2-3.5 16.3-4 5.4-5.9 1.8-4.6-8.7 1-8.4 6.6-13.6 8.1-7.6zm-686.2 18.5c3.8 4.4 4.4 6.6 2.4 8.6s-5.3 1.4-7.9-1.4l-2.4-2.5 2.5-1.9c2.2-1.7 2.3-2.2 1.3-3.9-3-4.8-.3-4.1 4.1 1.1zm323.5 19.7c2 1.5 6.8 4.6 10.8 6.9 8.5 5 14.1 11.2 10.1 11.2-2.4 0-20.3-7.2-22.2-8.8-2.5-2.3-7.6-10.2-7.6-12 0-2.1 4.6-.7 8.9 2.7zm-350.9 7c3 1.9 6.7 4.1 8.2 4.8 3.2 1.4 6.5 6.4 7.4 11.2.9 4.6-1.4 22.8-3.3 26.6-.9 1.6-7.1 12.2-13.8 23.5-14.4 24.4-34.8 59.7-71 123.5-14.7 25.8-30 52.4-34 59-10.6 17.6-20.7 35-25.1 43.4-7.6 14.4-11.3 15.9-23.3 9.6-3.6-1.9-8.2-4.1-10.1-4.8-6.1-2.4-19.5-13.4-28.6-23.5-4.9-5.3-12.9-14-17.9-19.3-8.4-8.9-26.3-28.3-49-52.9-9.6-10.4-16.3-20.2-19-28.1-.8-2.3-2.9-6.6-4.6-9.5-1.9-3.4-2.8-6.1-2.4-7.3.6-2 5.3-5.3 16.6-11.4 3.7-2 8.5-5.2 10.7-7.1 2.3-1.8 8.7-5.7 14.4-8.6s16.6-9.2 24.3-14 17.4-10.7 21.5-13c4.1-2.4 9.5-5.7 12-7.5s9.2-5.9 15-9.2c5.8-3.4 15.7-9.1 22-12.8 17.4-10.2 48-27.4 61.5-34.5 6.6-3.5 17.6-10.1 24.5-14.6s21.4-13.2 32.4-19.3l19.9-11 3.1 1.6c1.7.9 5.6 3.2 8.6 5.2zm699-1.4c0 3.7-1.8 8.5-3.2 8.5-1.1 0-1-7.3.2-10.5 1.3-3.4 3-2.3 3 2zM795.6 772c3.2.6 7.3 1.6 8.9 2.2 4.1 1.5 35.8 18.8 48 26.1 5.5 3.3 32.5 19.1 60 35 48.6 28.2 93.9 54.7 117.4 69 6.4 3.8 19.5 11.2 29.1 16.4 19.1 10.3 21 11.7 21 14.5 0 2.1-14.8 23-23.5 33.3-2.8 3.3-7.6 9.2-10.8 13.2-14.7 18.2-42.2 45.7-64.2 64.1-20.9 17.5-48.5 38.2-51 38.2-2.3 0-4.7-3.9-9.5-15.6-5.2-12.4-8.6-18-17.4-28.2-3.1-3.7-8.3-12-12.7-20.5a720.5 720.5 0 0 0-17-30.2c-5.3-8.8-22.1-39-37.4-67-15.3-28.1-33.7-61.4-40.9-74-7.1-12.7-14.5-25.8-16.4-29.3-4.1-7.7-7.2-21.5-7.2-32.8 0-8.7 1.7-12.5 6.4-14.4 2.9-1.2 10.2-1.2 17.2 0zm70.2 14.4c1.5.8 5.3 1.9 8.4 2.5 3.2.5 7.5 1.9 9.7 3.1 4.8 2.4 7.1 2.6 7.1.4 0-1.9 1.3-1.5 6.9 2.1 4.1 2.5 5.8 5.4 2.4 4-1-.4-2.9-1-4.3-1.2-2.3-.4-2.3-.3 1 2.6 1.9 1.8 5.2 4.5 7.3 6.2 3.4 2.9 3.7 2.9 3.7 1 0-2.7 2-2.7 7.8.3 5.7 2.9 8.2 5.3 6.1 6-8.9 2.8-8.6 2.8-12.5.2-6.6-4.5-6.5-1.1.3 6.9 2 2.3 2.9 4.1 2.2 4.4-1.5.5-22.1-13.6-29.5-20.2-3.3-2.9-7.9-6.8-10.4-8.7-11.3-8.4-14.9-14.1-6.2-9.6zm-346.6 8.3c-1.3 2.5-.4 4.3 2.2 4.3 1.3 0 2.5.3 2.9.6.8.8-5.1 11.9-7.4 14-1.7 1.6-1.9 1.5-2.8-1-1.7-4.3-3.3-3.4-10.6 6.2-2.6 3.5-5 6.1-5.2 5.8-.6-.6 8.2-15.2 16-26.5 2.8-4.1 5.3-6.9 5.5-6.3s-.1 1.9-.6 2.9zm-220.4 21.5c-.2.7-2 2.1-3.9 3s-4.1 2.4-5 3.3c-1.2 1.2-1.9 1.3-2.4.5-.9-1.4-.6-1.7 5.2-5.1 5.4-3.1 6.6-3.5 6.1-1.7zM696 827.6c4.3.9 5.7 3 3 4.4-1.6.9-2.9.9-4.8.1-2.1-.8-4-.7-8.2.4-3 .8-6.4 1.5-7.4 1.5-1.9 0-1.9 0 0-2.1 1-1.2 3.5-3 5.4-4 3.4-1.8 4.4-1.8 12-.3zm14.4 10.6c3 4 25.4 44.4 32.6 58.8 2.9 5.8 8 15.2 11.5 21 3.4 5.8 19.2 34.3 35 63.5 15.8 29.1 31.7 58.2 35.3 64.5s7.7 13.7 9.2 16.5c1.5 2.7 7.8 13.8 14 24.5 14.6 25.3 18.3 32.9 16.8 34.7-2.6 3.1-38.5 18.1-65.3 27.2-16.6 5.6-43.8 12.6-64.5 16.5-15.2 2.9-66.1 9.6-67.3 8.9-.5-.3-.6-2.1-.3-4.2.3-2 1-67.7 1.6-146.1 1.1-142.1 1.8-171.2 4.1-176.2.9-2 2.1-2.8 5.3-3.3 2.2-.4 5.7-1.4 7.6-2.3 6.6-2.9 18.5-7.1 20.2-7.1.9-.1 2.8 1.4 4.2 3.1zM252 842c-1.9 1.6-4.1 3-4.8 3s-3.5 1.1-6.2 2.5-5.6 2.5-6.5 2.5c-2.6 0-1.7-1.9 1.3-2.5 1.5-.3 6.1-2.3 10.2-4.5 8.9-4.7 10.8-5 6-1zm226 29c-2.3 11.2-4 14.7-7.7 15.6-1.5.4-4.2 3.2-7.2 7.8-5.4 7.9-12.1 14.8-12.1 12.5 0-2 12.7-24.3 24.7-43.4 4.7-7.5 5.1-6 2.3 7.5zm269.2 10.7c10.4 15.7 20.9 36.6 19.2 38.2-.9.9-6-5.4-10.3-12.9-3.2-5.4-14.1-29.8-14.1-31.5 0-1.3 1 0 5.2 6.2zm-552.4.5c-1.6 2.5-9 7.2-17.6 11.3-6.3 3-6.2 3-6.2.4 0-2.8 6.2-8.9 9.2-9 1.2 0 4.6-1.1 7.3-2.4 2.8-1.3 5.8-2.4 6.9-2.4 1.7-.1 1.7.1.4 2.1zm840.8 6.4c3.5 1.7 4.2 2.8 2.4 3.9-1.4.9-12-4.1-12-5.6 0-1.4 4.7-.6 9.6 1.7zm-219 88.6c5.1 7.2 11.9 19.6 11.1 20.4-1.1 1.1-20.6-29.6-20.7-32.5 0-1.5.4-1 9.6 12.1zm-16.4 3.8c2.2 4.7 4.6 9.6 5.4 11s3.1 5.6 5.2 9.3c5.5 10.1 15.2 27.1 20.8 36.4 2.7 4.5 6.9 11.7 9.4 15.9 2.5 4.3 5.8 10 7.4 12.7 1.9 3.2 2.5 5.2 1.9 5.8-.7.7-2.1-.8-4.3-4.3-1.8-2.9-5.9-9.4-9.1-14.3-3.1-5-10.1-17.1-15.4-27-5.4-9.9-12.2-22.2-15.2-27.3-7.4-12.7-12.9-24-13.7-28.2l-.7-3.5 2.2 2.5c1.2 1.4 4 6.3 6.1 11zm279.2 5.6c.9.3 1.6 1.5 1.6 2.5 0 2.1-14.8 19.2-18.1 20.9-3.7 2-3.9-.1-.4-3.7 2-2 6.1-7.4 9.2-12s5.8-8.3 5.9-8.3.9.3 1.8.6zM832.5 1018c3.5 7 4.3 10.4 2.6 11.4-1 .7-7.8-9.6-8.7-13.1-.7-2.7.1-5.3 1.6-5.3.5 0 2.6 3.1 4.5 7zm215.5 5.5c-5 5.8-9.6 10.5-10.1 10.5-1.1 0-.2-1.3 6.6-9.4 8.5-10.2 11.9-13.8 12.3-12.7.2.6-3.8 5.8-8.8 11.6zm-673 21.4c0 1.1-1.8 4.2-4 7a95.1 95.1 0 0 0-6 8.3c-3.2 5.3-2.3 1.3 1.1-5 6.4-11.5 8.9-14.5 8.9-10.3zm652 .9c0 1.6-7.1 9.1-13.5 14.2-3.6 2.8-6.5 5.7-6.5 6.5 0 2.3-4 6.3-14.3 14.4-5.6 4.4-11.9 9.4-14 11.2-2.1 1.7-4.1 2.9-4.4 2.5-3-3 21.8-29.3 39.7-42.1 9.8-7 13-8.6 13-6.7zm-416.2 73.8c.5 4.3-.8 15.4-1.9 15.4-.5 0-.9-4.3-.9-9.6 0-7.2.3-9.5 1.3-9.2.6.3 1.4 1.8 1.5 3.4z"/><path d="M695.5 45.5c-3.8 1.2-3.3 1.3 8.2 1.4 6.7.1 12.4-.3 12.7-.8 1.4-2.3-14.4-2.8-20.9-.6zm-17 5.8c-5 3.2-5 3.2-17.5 3.1-8.8-.1-15.8-.8-23.5-2.4-17.4-3.6-33-1.7-57 7-7.9 2.8-19.7 4.4-23.6 3.2-1.9-.6-7-1.6-11.4-2.2s-12.6-2-18.3-3.1c-17.5-3.3-29.4-2.1-43.6 4.3-4.9 2.2-13.5 5.1-19 6.4-12.2 3-35 10.1-38.8 12-3.5 1.8-3.7 4.4-.3 4.4 1.4 0 6.7-.9 11.8-2.1 12.6-2.8 18.7-3.7 18.7-2.8 0 .4-1 1.1-2.2 1.5-5.4 1.6-10.8 4.7-10.8 6.1 0 4.8 24.1-4.9 27.8-11.1 2.4-4 9.6-7.7 21-10.8 10.7-2.9 49.8-3.6 61-1.1 9.7 2.2 22.7.8 36.9-4.2 16.2-5.6 33.6-6.7 46.8-2.9 15.8 4.5 41.1 1 48.1-6.7 2.7-3-.3-2.4-6.1 1.4zm70.3-1.7c-1.5 1.5.7 4.5 4.1 5.4 27.1 7.1 36.9 9 47.3 9 10.8 0 13.1-.7 10.8-3.5-.9-1.1-3.6-1.5-10.5-1.5-7.7 0-11.2-.6-20.6-3.4-20.5-6.2-29.3-7.9-31.1-6zM716 58.8c0 .6 4.5 2.5 10 4.3 5.4 1.8 10.5 3.6 11.2 4 2.9 1.8-.8 2.1-10 .9-11.3-1.5-14.2-1.1-9.6 1.3 1.7.9 3.8 2.7 4.7 4.1 2 3 5.2 4 21.6 6.6 15.4 2.5 23.9 5.4 41.1 13.7 15 7.2 38.9 15.8 40.3 14.4 1.8-1.8-10.4-9.1-15.2-9.1-2.5 0-46.7-22.4-53.6-27.1-7.6-5.2-40.5-15.8-40.5-13.1zm90.4 22.3c-1.2 2 2.2 4 14.4 8.4 15.6 5.7 28.4 8.4 30.6 6.6.9-.7 1.6-1.9 1.6-2.6 0-3-4.4-4.7-20.1-8-9-1.9-18-3.9-19.9-4.4-4.4-1.4-5.7-1.4-6.6 0zM418.1 96.5c-13.2 2.9-26.1 8.3-26.1 11 0 1.8 1.8 1.9 5.7.4 1.5-.6 7.7-2.4 13.8-4 10.5-2.9 17.5-6.1 17.5-8 0-1.2-3.2-1-10.9.6zm452.4 7.3c.6.5 3.7 1.9 7 3.1 8.1 3 27.6 13.3 35 18.5 6.7 4.8 9.2 5.9 10 4.6 1.7-2.7-16.3-14.5-33-21.6-10.1-4.3-21.4-7.1-19-4.6zm-494 11c-6 2.1-11.5 5.8-11.5 7.8 0 1.7.5 1.7 6.4 0 5.1-1.5 15.6-7.5 15.6-8.8s-5.2-.8-10.5 1zm544.5 2.7c0 .2 3.5 3.1 7.8 6.3 4.2 3.2 14.1 10.6 22 16.5 7.8 6 14.9 11.9 15.8 13.2 1.9 2.9 3.4 3.2 3.4.7 0-3.6-9.5-11.5-32.6-27-14-9.5-16.4-10.9-16.4-9.7zm30 9.3c0 .4 2.6 2 5.7 3.6 14.6 7.2 37.3 24.8 40.9 31.8.9 1.8 2.2 3.6 2.8 4 1.4.9 3.6-1 3.6-3.3 0-4.8 5.6 0 12.8 10.7 5.2 7.8 11.3 13.2 22.7 19.9 11.1 6.6 22.9 16.8 31.5 27.4 3.6 4.3 6.6 7.8 6.8 7.6s-.8-2.8-2.3-5.9c-6.1-12.9-21.9-28.9-35.8-36.2-10.9-5.6-13.3-7.9-21.9-20.1-10-14.1-12.5-16.3-18.5-16.3-4.1 0-5.5-.7-13.2-6.4-9.7-7.3-20-13.7-25.6-16-4-1.7-9.5-2.1-9.5-.8zm-611.5 6.1c-13.9 5-28.8 13.3-37.5 20.9-4.5 3.9-6.4 7.2-4.2 7.2.5 0 3.7-1.8 7.1-4 9-5.8 14-8.2 16-7.5 1.2.4 5.2-1.9 12.2-7.1 5.7-4.2 12.5-8.7 15.1-10 4.3-2.2 7.1-4.5 5.1-4.3-.4 0-6.7 2.2-13.8 4.8zm15 16.6c-2.2 1.4-7.9 4.6-12.6 7.1-8.6 4.6-14.6 9.1-13.5 10.2.3.3 3-.6 5.8-2 7.4-3.6 20.8-9.4 23.8-10.3 1.4-.4 4.3-1.7 6.5-2.8 3.5-1.7 3.7-2.1 2-2.7-5.6-2.1-8-2-12 .5zm595.4 3.4c3.3 2.9 11 7.1 13.1 7.1 4 0-7.7-8.2-13.5-9.5l-3-.6zm-678.3 25.5c-6 2.2-8.8 4.7-12.1 10.7-2.7 4.9-3 6.3-3 14.4 0 11.3 2.2 15.8 8.8 17.6 6.8 1.8 18-1.2 23.4-6.3 2.9-2.7 2.1-3.8-2.9-3.8-7.4 0-13.7-9.6-11.2-16.9 1.3-3.5 7-4.1 11.8-1.2 3.5 2.2 8.1 2.8 9.1 1.1 1-1.6-6.6-13-9.6-14.5-4.2-2.2-10-2.7-14.3-1.1zm825 70.4c-.9 1.6 2.3 4.9 9.3 9.7 6.6 4.5 7.2 5.2 10.6 13.2 2 4.7 3.4 8.8 3 9.1-.6.7-1.9-.7-15-15.1-5.6-6.3-9.5-8.4-9.5-5.3 0 .7 5.8 8.3 12.9 16.8 7.9 9.5 15.6 20 19.7 26.9 11.5 19.6 13.4 22.1 24.9 33.4s13.4 13.9 16.6 23.2c2.3 6.8.9 6.8-2.8.1-3.3-6.3-7-8-6-2.8a85 85 0 0 0 3.3 9.3c1.4 3.4 3.9 9.6 5.4 13.8 3.8 10.3 9.6 22.3 11.5 23.9 2 1.6 2 .1 0-4.7-3.8-9-6.9-32.3-4.5-33.8.5-.3 2.2 1.2 3.8 3.5 2.9 3.9 4.5 7.7 13.2 30.2 3.9 10.2 7 15.2 7 11.4 0-3.3-9.2-30.2-13.2-38.4-5.1-10.8-23-34.5-36.8-48.7-11.9-12.3-14.3-16.2-22.5-35.5-3.1-7.4-7.2-16.2-9-19.5-7.3-13-19.5-24.5-21.9-20.7z"/><path d="M1126 313.3c0 1.3 1.8 5.3 4.1 8.7 4.8 7.4 15.4 21.6 16.9 22.5 2.5 1.6.5-3.1-5.2-11.9-3.5-5.3-8-12.3-10-15.6-4-6.3-5.8-7.5-5.8-3.7zm60.3 126.1c-3.5 1.6-5.3 4.3-5.3 7.8 0 3.2-2.6 6.6-5.3 7-2 .3-2.2.8-1.9 4.8.8 11.7 3.8 16.5 10.3 16.5 4 0 4.3.2 5.1 3.2 1 3.9 2.4 4.9 4.3 3.3 2-1.7 1.9-2.4-1-5.8-1.7-2-2.5-4.2-2.5-6.7 0-2.1-.5-5.5-1.1-7.6-1-3.2-.9-4.2.5-6.4 2.7-4.1 5.3-3.3 6.9 2.2.8 2.7 1.9 4.8 2.5 4.8s2.1-1.6 3.4-3.5c4.5-6.7 8.8-4.4 8.8 4.8.1 5.2.2 5.5 1.5 3.8.8-1 1.9-4.2 2.5-7.2 1.9-9.2-1.2-15.5-9.8-19.8-4.6-2.4-14.9-3-18.9-1.2zM639 147.9c0 3.3.4 6.2 1 6.6 1.5.9 3.2-6.9 2-9.9-1.6-4.4-3-2.9-3 3.3zm15.7 5.5c-.4 1-.7 6.1-.7 11.4s-.4 13.5-.9 18.2c-1.7 15.2-2.3 33-1.3 33 2.2 0 4.6-12.8 6.2-33.7 1.3-15.4.7-25.9-1.4-28.8-1.2-1.7-1.3-1.7-1.9-.1zm.9 198.8c-.3 1.3-.6 8.4-.6 15.8-.1 10.7-.5 14.6-2 19-2.6 7.4-2.5 7.8 1.6 16 1.9 3.9 4.2 8.8 5 10.8l1.4 3.7-.6-6c-.4-3.3-.5-7.4-.3-9 .7-6.8.1-44.3-.7-47.9-1.1-4.6-2.9-5.7-3.8-2.4zM879 197.8c-3.1 3.2-4 7.2-1.6 7.2 2.3 0 6.6-4.3 6.8-6.9.4-3.5-1.8-3.7-5.2-.3zm7.6 40.4c-1.3 1.8-4.5 7.2-7 12.1-4.4 8.4-5.7 12.5-3.6 11.2 2.7-1.7 15-22.4 15-25.4 0-2-1.9-1.1-4.4 2.1zm-46.2 60c-7.9 8.4-12.4 14.7-17.2 24.3-4.7 9.4-6.6 15.6-8.8 27.9-1.1 6.8-2.5 11-5.5 16.4-4.6 8.3-16.9 26.7-24.1 35.8-9.2 11.8-4.5 10.7 5.7-1.3 15.4-18 26.7-38 29.2-51.7 3.4-18.1 7-26.1 20.7-46.1 7.7-11.1 7.9-11.5 6.8-11.5-.5 0-3.6 2.8-6.8 6.2zM738.2 437.6c-4.9 6.5-10.3 16.5-11.7 21.4-.7 2.5-.7 2.5 1.2.5 2.1-2.1 12.9-18.9 15.7-24.3 3-5.9-.3-4.4-5.2 2.4zm87.2 304.5c-.7 1.3 1.3 2.9 3.7 2.9.9 0 3.1 1 5 2.3l11.4 7.8c4.4 3 10.9 7.2 14.3 9.3 3.5 2.1 8.4 5.4 10.8 7.2 2.4 1.9 4.7 3.4 5.1 3.4 2.1 0-8.7-9.2-18.4-15.6-6.1-4-12.4-8.9-13.8-10.8-4.4-5.8-16-9.9-18.1-6.5zm42.1 13c.6 1.7 2.1 2.6 11.3 7.6 9.3 4.9 19.1 11.5 23.7 15.9 4 3.7 5.9 3.3 3.1-.8-2.4-3.4-14.3-12.6-23.3-18.1-8.2-4.9-15.8-7.3-14.8-4.6zm-235.1 74.2c-1.4 3.7 1.8 15.1 4 14.4 2.5-.8 1.3-10-1.8-14.2-1.4-1.9-1.5-1.9-2.2-.2zm-121.2 44.5c-2.5 3.4-13.5 29.2-12.9 29.9 1.6 1.5 15-22.6 16.3-29.5.8-4-.7-4.2-3.4-.4zm-72.4 119.9c-3.8 4.5-17.5 32.9-16.4 34 .6.6 12.4-17.2 16.6-25.1 4.1-7.9 4-13.7-.2-8.9zm-30.7 55.6c-3 3.7-11.7 28-10.5 29.8.9 1.5 2.3.1 5-5.4 3.3-6.5 9.4-22.1 9.4-24.2 0-1.8-2.4-2-3.9-.2zM867 1058c0 .5 2.1 4.4 4.7 8.6 2.5 4.2 4.9 9 5.2 10.7.9 4.1 3.1 4.8 3.1 1 0-4.5-2.7-11.3-6.5-16.6-3.2-4.3-6.5-6.2-6.5-3.7zm-481.4 18.5c-4 6-7.3 17.9-5.7 20.4.7 1.1 1.1 1 2-.7 2-3.8 7.1-18.3 7.1-20.3 0-2.6-1.4-2.4-3.4.6zM439 271.1c0 2.7 2.3 6.9 5 9.4 3.9 3.5 9.9 13.1 13 21 4.4 11.1 6.7 15.2 12.1 22 2.7 3.3 7.9 11.5 11.5 18.3 5.5 10.2 7.3 12.6 10.3 14.1 4.8 2.5 6.4 4.4 9.7 11.6 2 4.4 2.8 5.5 3.2 4.1.4-1.9-9-21.8-12.3-26.2-1.2-1.6-1.6-1.7-2.4-.5-.7 1.1-1.4.7-3-2-2.2-3.5-8.1-18.1-8.1-19.9s1.8-1 4.3 2c3.5 4.1 4.1 3.8 1.7-1-1.6-3.1-2.8-4.1-5.9-5-4.1-1.1-6.4-3.7-8.6-9.8-.9-2.8-1.8-3.6-3.3-3.5-1.5.2-2.4-.8-3.7-4.5-3.5-9.2-7.4-15.8-14-23.4-7.2-8.3-9.5-9.9-9.5-6.7zm-254.5-16.8c-5.9 3.4-9.3 9.6-10.5 19.6-1.1 8.1-1 8.5 1.2 10.8 7.5 8.1 21.8 13.1 21.8 7.7 0-.8-1.2-3.2-2.6-5.4-3.5-5.3-3-11.2 1.5-16.8 1.7-2.2 3.1-4.5 3.1-5.1 0-3.5 6.7.8 8.6 5.6 1.7 3.9 3.5 3.9 4.8 0 .7-1.9.5-3.6-.8-6.6-4.8-10.6-17.5-15.2-27.1-9.8zm-35.3 60.9c-2.2 2.8-4.2 7.9-4.2 10.6 0 1.9-1.8 5.4-5 10-5.1 7.2-17 31.9-17 35 .1 2.7 3.2-1.9 10.5-15.6 3.6-6.7 9.7-17 13.5-22.8 6.8-10.3 7.5-12.4 4.4-12.4-1.2 0-1.4-.7-.9-3 .7-3.2.3-3.7-1.3-1.8zm13.6 2.5c-2.4 2.7-4.6 7.6-5.7 12.2-1.7 7.8.4 4.9 6.5-8.7 2.4-5.2 2-6.7-.8-3.5zm-36.5 23c-2.8 3.8-6.2 8.6-7.4 10.8-1.3 2.2-4.5 6.6-7.1 9.8-6.9 8.4-9.9 14-16.9 31.4-1.4 3.7.9 2.7 3.3-1.2 1.1-2 2.3-3.4 2.5-3.1.5.5-1.4 16.5-2.3 19.8-.3 1-.1 1.8.5 1.8.5 0 1.7-2.6 2.5-5.8 5.1-18.5 17-45.5 26-59.2 5.3-7.9 6.6-11 4.8-11-.4 0-3.1 3-5.9 6.7zm7.2 27.5c-.2.7-1.1 4.1-2.1 7.5-1.4 5.5-9.2 20.1-18 34.3-3.9 6.1-4.4 7.5-3.4 9 .7 1.1 1.3.6 2.7-1.9 1-1.8 4.2-6.4 7-10.3 6.6-8.7 12-18.3 15-26.5 2.7-7.5 3.1-13.3.8-13.3-.9 0-1.7.6-2 1.2zM112.7 445c-4 4.7-9.7 15-9.7 17.4 0 .9-.9 3.4-1.9 5.5-3.4 6.6-11.2 35.1-11.8 43.1-.6 8.1 1.2 17.7 2.7 14.9.5-.8 1.6-6.9 2.4-13.5.9-6.5 3.3-18.6 5.3-26.9 3.2-12.9 4.6-16.8 11-29.2 4-7.8 7.3-14.5 7.3-14.8 0-1.5-2.2 0-5.3 3.5zm-41.4 27.2c-7.4 7.5-13.3 23.2-18.8 49.8-2.1 10.1-2.7 17.1-3.5 37-.5 13.5-1.4 29.2-1.9 35-.6 5.8-1 14.8-1.1 20.1 0 6.6-.5 10.9-1.6 13.5-3 7.2-.5 26 3.9 29.8 2 1.7 3.6 9.8 4.6 23.1 1 12.7 2.9 20.8 3.1 13 0-2.2-.5-14.2-1.2-26.6-1-20.3-1-23.3.5-29.5 1.9-7.7 2.1-10.4.8-10.4-.5 0-1.4.7-2.1 1.5-2 2.4-3.7 1.8-4.4-1.5-.3-1.7.1-9.9.9-18.3s1.9-27.4 2.5-42.2c1.2-28.7 1.8-35.3 4.9-49.2 4.8-21.3 10.1-35.1 16.2-42.1 2.7-3.1 3.9-7.2 2.1-7.2-.4 0-2.7 1.9-4.9 4.2z"/><path d="M79.6 503.2c-2.6 6.3-11.9 35.4-13.2 41.3-2.1 9.7-1.8 25.4.7 31.7 2.3 5.8 2.2 7.1-1 19.8-4 15.4-6.3 35-4.2 35 1.1 0 1.5-1.4 5.1-18 1.6-7.4 3.8-16.4 4.9-20 2.7-8.5 2.6-12.8-.4-22.5-1.4-4.4-2.5-10.3-2.5-13 .1-7.4 3.5-21.6 7.4-30.3 1.9-4.2 4.1-10.2 5-13.4 2.9-10.1 1.5-18.4-1.8-10.6zm8.5 63.2c-.6.7-1.4 2.8-1.7 4.7s-1.3 5.6-2.1 8.2c-.8 2.7-1.3 5.6-1 6.7.2 1-.1 5.5-.9 10.1-2.5 15.5-3.7 32-2.5 33.2.8.8 1.1.8 1.1 0 0-2.2 8-48.6 9-52.2 2-7.3.9-14-1.9-10.7zM71 678.5c0 10.1 2.5 19.8 9.5 37.6 5.4 13.9 5.5 14.2 5.5 24.7 0 17.6 1.9 43.3 3.5 49.7.9 3.3 3.3 9.1 5.4 13 2.1 3.8 4.8 8.8 6 11 4.1 7.8 11.9 26.2 16.1 38 4.2 11.7 7 17 7 13.3 0-.9-.4-2.8-1-4.2-.5-1.4-1.4-6.5-2-11.3-1.2-9.4-6.6-23.8-17.9-48.2C95.7 786.4 94.4 780 93 754c-1.6-27.6-2.7-33.8-8.9-46.3-4.9-10.2-9.3-22.6-10.5-30.2-1.3-7.9-2.6-7.3-2.6 1zm14.5.5c-.4.6-.2 5 .4 9.8s1.3 12 1.7 16c.3 3.9 1.1 7.5 1.7 7.9 1.1.7.3-28.2-.9-32.5-.7-2.4-1.9-2.9-2.9-1.2zm-25.1 2.5c-.6 1.3.1 5 4.1 22.5.8 3.6 1.9 13 2.5 21 1.2 17.1 3.6 34 5 35.4s1.3-1.2-1.5-32.7c-2.4-27.1-4-37.1-6.9-44.2-1.6-3.8-2.4-4.3-3.2-2zm42.6 166c0 1.9.9 5.7 2 8.5 3.4 8.5 9.8 30.2 10.5 35.5.6 4.9.5 4.8-4.5-5.5-7.4-15-10.1-22.6-10.2-28.4 0-2.8-.4-5.9-.9-6.8-1.5-2.7-5.7-2.3-7.1.7-1 2.2-.6 3.8 2.5 11.5 2.1 4.9 3.7 9.4 3.7 10s2.6 7.3 5.9 14.8c3.2 7.5 6.6 16.2 7.6 19.2 2.3 7.2 5.7 13.9 9 17.9 2 2.3 3.5 3.1 6 3.1 4.8 0 12.4 5.5 16.1 11.7 2.2 3.8 3.3 7 3.7 11.6 1.1 11.8 8 24.8 21.7 41.2 4.1 4.9 8.8 10.7 10.3 12.7 1.5 2.1 3.2 3.8 3.8 3.8 2 0 .7-3.1-4.2-10.2-19.5-28.3-26.8-40.1-28-45.2-1.6-7.3-.7-10.6 2.9-10.6 8.5.1 27.2 14.6 27.2 21.2 0 .9.5 2.9 1.1 4.5 1.1 2.8 1.1 2.8 2 .5 1.1-2.9 2.8-2.8 7.6.7 6.5 4.7 11.2 11 17 22.9 3 6.2 5.7 11.1 6 10.9.8-.9-3.6-15.6-6.3-21-6.2-12.4-13.8-19.6-21.8-20.7-3.8-.5-4.3-.9-6.7-6.1-3.4-6.9-5.9-9.1-18.8-15.9-12.5-6.5-15-8.9-17.6-16.6-1.5-4.6-2.5-5.9-4-5.9s-2.1.8-2.3 3.2c-.4 3.7-2.3 4.3-5.9 1.8-3.5-2.4-6.2-9.9-12.3-33.4-7.7-29.5-12.9-45.1-15.1-45.1-.5 0-.9 1.6-.9 3.5z"/><path d="M128.7 907.6c-1 1 2.2 6.4 3.8 6.4 2 0 1.9-3.4-.1-5.4-1.7-1.7-2.7-2-3.7-1zm21.3 74.9c0 2.4 2.9 8.7 4.9 11 1 1.1 3.7 5 5.9 8.7 9.7 16.2 24.4 30.3 38.7 37.3 15.9 7.8 16.8 5.1 1.4-4.4-13.4-8.3-24.6-19.5-35.9-36-12.2-17.7-15-20.9-15-16.6zm80 46.1c0 1.9 33.8 36.4 45.5 46.6 4.4 3.8 9.2 8 10.8 9.4 2.3 2.2 2.7 2.3 2.7.7 0-2-55.8-58.3-57.8-58.3-.6 0-1.2.7-1.2 1.6zm-19.6.9c-1.1 2.6.4 4.4 7.3 8.8 3.7 2.5 9.5 7.3 12.8 10.9 6.1 6.5 23.2 27.3 31.6 38.3 8.7 11.4 12.1 13.7 28.3 19.6 4.3 1.6 8.6 3.5 9.4 4.1 3.6 3 18.8 20.7 22 25.7 2.5 4 3.7 5 4.5 4.2 2.9-2.9-14.3-26.9-25.1-35-2.8-2.1-8.6-5.3-12.9-7.1-11.4-4.6-17.4-9.1-24.5-18.3-3.5-4.4-9.9-12.6-14.3-18.1-4.4-5.6-9.7-12.4-11.7-15.1-5.4-7.4-10.5-11.9-18.1-15.9-7.7-4-8.5-4.2-9.3-2.1zm95.6 75.9c0 2 9.1 9.7 22.8 19.6 19.8 14.1 28.1 18.6 37 20 5.5.9 6 1.3 17.4 12.7 6.4 6.4 12 11.5 12.2 11.2 1-1-6.2-10.5-12.5-16.5-8.1-7.7-13.4-11-22.3-14-7.9-2.7-14.9-7.1-34.3-21.5-11.8-8.7-18.1-12.9-19.8-12.9-.3 0-.5.6-.5 1.4zm39.6 54.5c-1.2 1.9 4.2 5.8 16.4 12.1 6.5 3.3 14.1 7.8 16.9 10 5.7 4.6 7.1 4.9 7.1 1.8 0-7.2-37.1-29.2-40.4-23.9zm80.5 10.6c-1.9.8-4 2.3-4.7 3.3-1.7 2.1-1.8 8.2-.3 13.3 3.3 10.7 16.5 18.3 22.9 13.1 2.9-2.3 2.2-3.6-4-6.7-2.7-1.4-5.1-2.9-5.4-3.4-.7-1.1 1.3-2.8 3.9-3.2 1.1-.2 2.6-1.9 3.4-3.7 1.7-3.9 2.5-4 4.7-.7 2.6 4 5.4 2.8 5.4-2.4 0-2.1-4.3-6.3-8.7-8.5-4.7-2.4-13.1-2.9-17.2-1.1zM395 494.7c0 1.4 24.4 16 30.4 18.2 2.1.8 5.7-.2 4.6-1.2-.9-.9-27.4-14.6-31.2-16.2-2.1-.8-3.8-1.2-3.8-.8zm229.5-10.6c-14 1.5-30.5 6.3-44.8 13-7.1 3.2-13.1 5.9-13.3 5.9-1 0-17.8 11.8-23.1 16.2-5 4.2-19.4 20.7-24.3 27.8-1.3 1.9-3.7 5-5.2 6.8-3.6 4.2-12.6 22.9-16.6 34.3-5.5 15.6-7.7 29.3-7.7 48.4 0 17.5.7 23.3 5.2 43.4 2.1 9.3 3.9 14.2 9.8 26 4 8 8.9 16.6 10.9 19.1s3.6 5 3.6 5.7c0 2 18.5 21.8 26.2 28 10.3 8.3 14.9 11.3 29.5 19.2 17.9 9.6 30.8 13.4 55.7 16.2 24.4 2.7 55-3.1 82.2-15.6 15.2-7 41.3-27.9 53-42.6 20.4-25.6 30.8-54.8 33.3-93.7 1.7-25.8-1.9-48.6-10.4-65.9-2.5-5-4.5-9.6-4.5-10.1 0-.6-1.6-3.4-3.6-6.3-2-3-4.5-7.2-5.6-9.4-5.1-10-21.2-26.4-38.7-39.4-14.8-11-37.7-21.1-58.1-25.6-9-2.1-40-2.8-53.5-1.4zm49.1 9.3c17.3 3.5 34.7 10.8 51.9 22.1 26.3 17.1 51.3 50.5 58.4 77.9 3.7 14.1 2 14-4.5 0-2.4-5.2-4.8-9.4-5.4-9.4-.5 0-1 .4-1 .9 0 1.6 7.1 20.6 8.5 22.7 1.2 1.8 1.1 2.3-.3 3.8-1.5 1.4-1.8 5.2-2.4 26.8-.6 24.4-.6 25.2 1.4 27.9 6.2 8.3-4.6 43.8-18.4 61-6.9 8.5-30.4 30-38.8 35.4-24.1 15.6-51.9 23.6-82 23.6-16.9 0-28-1.7-42.7-6.6-23.3-7.8-42-20.1-61.9-40.7-9.4-9.7-17.2-20.3-16-21.5.8-.8 15.3 13.7 19.8 19.7 1.4 1.9 2.9 3.2 3.3 2.8.8-.7-3.1-6.4-12.7-18.6-3.2-4-5.8-7.9-5.8-8.5 0-.7-2.5-4.3-5.5-8.1-5.6-6.9-6.4-9.6-4.9-15.4.9-3.1 1.9-2.8 4.6 1.7 4.6 7.6 13.7 20.9 14.8 21.6.6.4 1.7-.1 2.4-1 1.1-1.6 1.6-1.2 4.9 3.2 8.4 11.5 33.1 33 42.1 36.8 3.7 1.6 4.1 2.5 2.7 6-1.5 3.7 3.6 11.5 7.6 11.5 1.9 0 2.5-.8 3.5-4.5 1.2-4.3 3.3-5.9 4.4-3.2.3.8 0 3.5-.6 6.2-.6 2.6-.9 4.9-.7 5.2.3.2 2.1-1.9 4.1-4.7 3.9-5.5 5.8-6 14.1-4 2.2.5 10.8 1.5 19 2.1 8.7.6 15.5 1.6 16.2 2.3.7.6 1.7 3.6 2.3 6.5.6 3 1.2 5.7 1.5 5.9.3.3 1.6-.5 2.9-1.7 1.7-1.6 3-2 4.9-1.5l2.7.6-.3-6.7-.2-6.7 12-4.2c26.9-9.6 38.3-16.4 55.1-33.1 17.1-17 25.3-31.4 33.6-59.2 3.3-10.7 3.3-11 3.3-31.8v-21l-3.8-12.9c-6.7-22.9-15.9-38.8-31.8-54.8-13.3-13.4-42.1-30.5-55.3-32.9-6.9-1.2-13.6-3.7-13.6-5 0-1.5 4.7-1 10.5 1 6.2 2.2 7.9 1.3 4.5-2.4-4.9-5.2-22.2-8.2-29.5-5-3.2 1.3-6.9 1.6-18.1 1.5-15.2-.1-25.6 1.1-34.1 4.1-6.9 2.4-6.6.5.6-3.1 10.6-5.5 24.3-7.3 42-5.8 2 .2 3.6-.2 3.8-.9.7-1.9-4-4.3-10.8-5.6-5.7-1-6-1.2-3.4-1.8 1.7-.4 8.9-.7 16-.8 10 0 15.8.5 25.1 2.3zm-63 3.1c-1.1.8-2.7 1.5-3.5 1.5s-4.5 1.8-8.2 4-7.1 4-7.4 4c-.4 0-3.3 1.5-6.4 3.4-3.1 1.8-8.1 4.1-11.1 4.9-3.1.9-7.6 3-10 4.6-4.4 2.9-26.3 24.7-35 34.8-4.1 4.8-10 8.1-10 5.6 0-2.7 7.7-12.1 18.9-23.3 13.2-13.2 26.2-22.7 40.3-29.8 9.2-4.5 27.3-11 31.3-11.1 2.8 0 2.9 0 1.1 1.4zm-1.6 16.6c0 1.1-6 3.9-8.5 3.9-2.4 0-1.8-1.8 1.3-3.4 3.2-1.8 7.2-2.1 7.2-.5zm53.6 7.3a142.5 142.5 0 0 1 49.4 20.9c9.5 6.3 26.3 23.4 31.3 31.8 21.6 36 23.4 42.5 20.8 73.4-2.3 25.5-4.6 33.2-17.3 55.8-6.9 12.4-13 19.1-28.3 31.5C699 749.5 671.2 759 645 759c-33.4-.1-61.5-12-85.5-36.4-16.1-16.4-25.3-32.2-31.2-54.3-2.5-9-2.7-11.3-2.7-29.3s.2-20.2 2.7-29.4c1.5-5.5 3.5-10.9 4.6-12 2.8-3.2 4.1-6.1 4.1-9.7 0-4 3.3-9.9 11.9-20.9 9.6-12.4 23.1-25.4 29.6-28.5 3-1.4 7.2-3.7 9.2-5.1 10.4-7.1 24.7-12.4 38.5-14.4 8.3-1.2 27.8-.4 36.4 1.4zm-71.1-.5c-.8 1.3-9.5 6.1-11.1 6.1-2.8 0-1.3-1.6 3.9-4.2 5.4-2.8 8.2-3.5 7.2-1.9zm-44.5 34c0 1.2-9.1 11.3-9.7 10.7-1.1-1 2-7.7 4.4-9.6 2.7-2.1 5.3-2.6 5.3-1.1zm-24.3 15.3c-.4 2-4.6 11.7-11.8 27.5-2.7 6.1-4.3 5.6-3.7-1.2.7-8.1 11.5-28.5 15.1-28.5.5 0 .7 1 .4 2.2zm-22.8 63.5c.1 15.2 1.7 30.2 4.3 40.2 2.7 10.4 3.2 13.8 2 14.5-1.1.6-1.6-.7-5.6-13.4-3.6-11.6-5-24-4.2-39 1-22.6 3.4-24.1 3.5-2.3zm286.8-11c1.9 4.4 2.3 27.7.5 29.5-1.3 1.3-1.9-1.6-3.2-14.7-1.2-13.1-1.2-18.5.1-18.5.5 0 1.7 1.7 2.6 3.7zm-270.2 23.7c.6 10.6.5 12.8-.6 12.4-2.1-.7-2.7-4.3-2.8-17.3-.1-13.8.9-19.9 2-12.5.4 2.5 1 10.3 1.4 17.4zm-4.3 21.3c2.1 2.4 3.1 7.4 2.2 11.7-.8 4.5-1.6 4.5-3.7.2-4.1-8.7-3-17 1.5-11.9z"/><path d="M621 530.9c-18 3.9-31.9 11.3-49.4 26-17.7 15-29.9 35.5-34.7 58.6-2.5 12-2.7 35.7-.4 47 1.6 7.8 8.6 25.5 12.8 32.5 6.1 10.1 18.2 23.9 27 30.8 9.5 7.5 25.8 16.3 37.3 20.1 23.7 7.9 60.9 2.7 85.5-11.9 9.5-5.6 21.8-14.9 28.2-21.4 6.8-6.8 15.8-21.6 19.1-31.6 3.9-11.8 6.7-27.5 7.3-40.5.5-11.4.4-12.7-3.1-26-7.9-30.4-23-52.4-47.1-68.3-11.4-7.5-17.6-10.3-31.4-13.9-13.3-3.5-38.4-4.2-51.1-1.4zm44.7 8c9.5 2 24.3 7.1 27.7 9.6 2.7 2 1.4 4.1-4.3 7-6.4 3.2-7.3 3.2-11-.6-2.4-2.4-3.8-3-6.3-2.7-4.7.4-4.5 2.5.5 8.3l4.4 4.9 5.7-1.9c6.8-2.3 8.5-1.6 10.4 4.1 3.1 9.4 6.2 8 6.2-2.8 0-12.1 3.5-12.2 14.8-.5 6.6 6.9 7.1 8.1 4.6 9.5-1.5.8-1.5 1.2 0 4.1 1 1.8 1.4 4.1 1.1 5.2-.8 2.3-6.1 5.9-8.9 5.9-1.7 0-1.8-.5-1.1-4.8 1.4-9.2 1.2-13.6-.8-14-2.1-.4-9.2 6.3-8.2 7.8.3.5 1.9 1 3.6 1 2.3 0 2.9.4 2.9 2 0 2.4-2.7 8-3.8 8-.4 0-2.6-1.8-4.7-4.1-3.8-3.8-10.1-7.9-12.4-7.9-.6 0-4.8-1.8-9.3-3.9-10.4-4.9-18.8-7.7-29.5-9.7-9-1.7-10.6-1.6-28.2 1.8-8.7 1.7-11.5 2-11.9 1-.8-2.4-4.2-1.1-11.6 4.5-7.1 5.3-9.4 7.9-4.8 5.4 1.2-.6 2.8-1.1 3.6-1.1 2.5 0 .8 2.6-3.7 5.6-9 6-14.7 13.2-14.7 18.6 0 1.3-1.8 5.9-4 10.3-3.2 6.3-4.2 9.5-4.6 15-.8 10.2-1.2 11.4-4.2 12.7-5.1 2.3-11.2 6.9-11.2 8.6 0 1.1 1.3 2.2 3.2 3 2.9 1.1 3.3.9 6.4-2.4l3.3-3.4 1 3.7c.5 2.1 1.2 5.4 1.6 7.3.7 3.7 11.5 26.6 14.7 31.3 2.2 3.1 5.4 5.1 6.2 3.9.3-.5-.8-3.7-2.5-7.2-1.6-3.4-2.7-6.6-2.3-6.9.7-.7 6.1 5.4 10.2 11.5 2.2 3.2 2.7 5 2.4 8.2-.4 4.6-1 4.9-9 5.9-5.3.6-5.7.5-7.8-2.3-2.7-3.4-4.9-2.3-3.9 1.9 1 3.7 3 5.1 9.4 6.2l5.6 1-.1 3.8c-.1 3.6.8 4.8 2.1 2.6 1.8-2.8 5.5-2.9 12.6-.2 5.5 2 7.3 2.3 8.2 1.4 1.3-1.3 1.3-1.3-7.7-6.1-5.7-2.9-7.6-5.8-3-4.4 1.6.4 8.3.9 14.9 1 6.6 0 14.9.6 18.5 1.2 7.1 1.3 25.2 1.6 31.3.5 2.4-.3 4.1-1.3 4.5-2.4.4-1 3.9-4 7.7-6.7 20-14 33.5-38.6 33.5-60.8 0-7.6.6-10.4 2.2-10.4 1.4 0 3.8 6.5 3.9 10.7l.1 3.8 1-4.8c1.1-5.2 2.3-5.9 4-2.2 2.2 4.8-2.3 24.1-9.3 39.6-4 8.9-5.2 17-2.7 18.5 1.2.8 10.4-8.6 12.6-12.8 3.3-6.7 9.2-21.8 9.2-23.8 0-1.7-.4-2.1-2-1.7-1.4.4-2.4-.1-3.1-1.5-1.3-2.4-1.6-10.3-.5-13.6 1.3-3.8 2.6-2.4 2.6 2.8 0 4.3.3 5 2 5 1.4 0 2.1-.9 2.6-3.4.6-3.6-1-10.1-2.7-11.2-2-1.2-2.9-5.4-1.7-7.3 2.6-4.2-1.9-7.6-5.6-4.2-3.2 3-4.3 2.7-6.7-2.2-1.2-2.3-4.5-7.9-7.5-12.4-6.8-10.5-6.9-11.2-2-12.9 2.2-.8 5.4-2.5 7.2-3.9s3.6-2.5 3.9-2.5c.4 0 2 1.3 3.6 2.9 3 3.1 3 3.3-1.6 5.6-4.7 2.4-3.8 11.6 1.2 12.3 2.3.3 3.8-2 6-9.3 1.9-6.5 7.2-3 10.2 7 2.1 6.5 1.9 7.5-.9 7.5-3.1 0-3.3 1.9-.8 5.3 1.3 1.8 3.5 6.7 4.8 10.9 2.1 7.1 2.2 8.2 1.1 13.5-.7 3.2-1.7 6.8-2.2 8.1s-.9 3.8-.9 5.7c0 6.8-9.4 31.5-11.9 31.5-.5 0-4.2 2.7-8.3 6a88.23 88.23 0 0 1-27 15.1c-3.8 1.3-6.8 2.7-6.8 3.1v1.5c0 .5 2.8 1 6.2 1.3l6.3.5-7.9 5.4c-8.2 5.5-20.5 11.4-26.4 12.5-3.9.7-5.4-1.5-2.8-4.3 2.1-2.3 2-4.6-.1-8.2-.9-1.5-1.5-3-1.2-3.3.2-.2 3.3-1.8 6.9-3.5l6.5-3.1-8.5.5c-4.7.3-15 .5-23 .6-15.8 0-16.4 1.2-1.1 2.4 10.2.8 10.2.8 15.3 8.7 1.8 2.9 2.7 5.5 2.4 6.6-.3 1-2.6 3.8-5.1 6.2-4.4 4.4-4.7 4.5-12 4.8-4.1.2-8.2.1-9.1-.2-1.4-.5-1.4-.8 0-2.8 2.1-2.9 2.2-13.1.2-14.7-2.5-2.1-4.6 2.4-4.6 9.7 0 4.8-.4 6.4-1.6 6.9-2.5.9-17.1-3.5-27.3-8.3-52.1-24.5-72.7-86.9-46.3-139.9 6.1-12.3 13.1-21.3 22.5-29.2 4.8-4 10.6-8.2 12.9-9.4 2.2-1.1 5.8-3.4 8-5 13.3-9.6 45.2-13.8 68.5-9zm-8.3 38.6c3.2.9 7.7 2.9 10 4.5 2.2 1.7 7 4.4 10.5 6.1 7.5 3.6 15.8 11.6 19.1 18.4 2 4.2 2.1 4.8.7 6.2-2.4 2.5-9.2-1.4-14.4-8.2-2.3-3-5.9-6.5-8-7.8-2.1-1.4-4.4-3.2-5.2-4.1-2.8-3.4-4.1-1.9-4.1 4.9v6.5h-7.2c-7 0-7.8.3-20.8 6.9-12.2 6.2-14 7.4-18.8 13.2-6.6 7.9-9.8 14.5-11.1 22.9-1.5 9.3.6 17 4.7 17 1.5 0 1.5-.7-.4-10.8-.9-4.8 1.2-4 4 1.6 2.6 5.1 11.3 14 16.2 16.4 1.6.9 4.8 1.8 7.2 2.1 5.3.6 6 1.2 4.5 3.7-1 1.5-.8 2.1.9 3.2 2.2 1.5 2.1 1.5-2.2 4-5.5 3.2-9.9 4.2-13.1 3-4.9-1.9-18.5-16-25.1-26l-1.7-2.6-1.1 3c-1.5 3.9-.8 8.5 2.5 16.5l2.7 6.5h5.2c4.2-.1 6.1.5 9.7 2.9s5.8 3.1 11.7 3.6c5.7.4 7.7 1 9.5 2.7 1.7 1.8 1.9 2.6 1.1 4-1.7 2.6-14.1 2.3-21.7-.6-14.2-5.4-28.3-18-30.8-27.6-.7-2.6-2.3-5.2-4.7-7.2-3.6-3.1-3.6-3.1-4-12.7-.5-11.2 1.6-25.5 5.3-35.5 6-16 20.9-29.2 39.5-35.1 11.2-3.5 20.3-4 29.4-1.6zm71.4 4.7c2 2 1.4 3.8-1.2 3.8-4.3 0-5.7-1-4.5-3.1 1.1-2.2 3.9-2.5 5.7-.7zm-47 31.5c1.3 2.5 3.2 4.3 4.7 4.7 2.8.7 5.1 7.1 6.2 16.8.8 7.6-.1 10.8-3 10.8-4.3 0-9-6.7-14.2-20.5-1.4-3.7-3.8-8.6-5.5-10.8-1.6-2.3-3-4.3-3-4.6 0-.4 2.8-.6 6.2-.5 6.3.1 6.3.1 8.6 4.1zm-40.2 5.4c.4.7 2.1.9 4 .6 4.2-.7 9.4 1 9.4 2.9 0 1.8-11.5 7.4-14.9 7.4-1.4 0-3.8 1.2-5.3 2.7-2.7 2.6-3 2.7-5.6 1.2-1.5-.8-3.2-3-3.9-4.9-1-3.1-.9-3.7 1.1-5.8 3.8-3.9 13.6-6.6 15.2-4.1zm14.8 30.6c-1 4.1-2.3 5.3-5.8 5.3-2.1 0-4-.8-5.4-2.3-3.4-3.6-1.1-5.5 7.1-5.6 4.7-.1 4.7-.1 4.1 2.6zm25.4 8.1c.2 1.3-.5 4.7-1.6 7.5-1.2 2.9-2 6.3-1.9 7.7.2 1.9-.9 3.2-4.7 5.8-5.6 3.7-7.8 3.8-8.6.2-.4-1.5-1.5-2.6-3-3-3.8-.9-3.5-3.3 1.2-9.1 8.7-10.7 17.8-15.1 18.6-9.1z"/><path d="M639.2 544.2c-2 2-1.4 3.7 1.6 4.4 1.5.4 4.2 2 6 3.6 4.1 3.5 5.2 3.5 5.2.2 0-3.4-5.9-9.4-9.2-9.4-1.3 0-2.9.5-3.6 1.2zm-20.1 7.5c-4.5 5.6-3.6 11 1.3 8.3 1.4-.7 3.1-1 3.9-.7 1.8.7 3.7-1.1 3.7-3.4 0-2.1-3.8-6.9-5.5-6.9-.7 0-2.3 1.2-3.4 2.7zm-45.6 30.8c-8.6 9.4-16 25.2-14.1 30.2 1.1 2.6 3-.2 5.5-7.8 2.4-7.4 5.8-13.2 11.9-20.2 4-4.5 4.6-6.7 2-6.7-.6 0-3 2-5.3 4.5zm-17.2 84.1c-.6 1.7 1.2 3.4 3.7 3.4s4.3-1.7 3.7-3.4c-.4-1-1.8-1.6-3.7-1.6s-3.3.6-3.7 1.6zm1.1 14.9c-.9 2.1.1 4.1 2.9 6 2.1 1.4 2.8 1.4 6.7 0 8.6-3 9.6-6.1 1.7-5.1-3.9.5-5.7.3-7.2-.8-2.5-2-3.4-2-4.1-.1zM675 719.3c-4 1.4-5.4 4.7-2 4.7 3.2 0 9-3 9-4.6 0-1.7-2.3-1.7-7-.1zm-70.3.4c-1.2 1.2-.7 2.2 2.9 6.3 5.4 6 11 5.2 7.8-1.1-2.2-4.3-8.5-7.4-10.7-5.2zm43.7-137.5c-4.7 1-9.7 5-9.2 7.5.3 1.7 12 9.3 14.3 9.3.8 0 1.5-1.4 1.7-3.3.2-1.7.6-3 .9-2.7 1.2 1 3.9-2.4 3.9-5 0-4.9-4.6-7.2-11.6-5.8zm-30.1 8.8c-3.7 1.5-2.9 4.7 1.4 5.5 2 .3 4.9 2 6.6 3.6 3.6 3.7 5.7 3.1 5.7-1.4 0-6-7.7-10.3-13.7-7.7zM602 606.1a9.5 9.5 0 0 1-4.1 3.1c-3.6 1.3-6.2 5.9-6.3 11.4-.1 4.3 2.4 8.4 5 8.4 2.1 0 8.6-9.2 8-11.2-2-6.4-2.1-6.1 1.2-5.3 4.5.9 5.5 0 3.7-3.5-1.3-2.6-4.2-5-5.9-5-.3 0-1 .9-1.6 2.1zM590.5 648c-1.9 3.7-1.9 5.9 0 6.6 2.5 1 4.5-1.6 4.5-5.7 0-4.8-2.2-5.3-4.5-.9zm632.9-37.1c-1.1 1.9-2.6 4.1-3.4 5-1.2 1.3-1.5 4.1-1.3 13.3.1 6.5.6 13.3 1.2 15.1 1.2 3.5 4.7 7.5 5.7 6.5.3-.3-.2-4.6-1-9.4-2-11.2-2-14.3 0-23.8 1.8-9 1.4-11.4-1.2-6.7zm1.9 60.6c.3 3.8 1 8.3 1.7 10l1.2 3 1-2.7c1.1-3.3-.5-12.6-2.8-15.4-1.4-1.7-1.5-1.3-1.1 5.1zm-3 64.7c-.6.7-1.4 4.7-1.8 8.8s-2.3 14.5-4.2 23c-1.9 8.6-3.6 18.8-3.7 23-.3 9-1.2 11-13.8 29.9-4.9 7.4-10.6 16.8-12.7 21-3.6 7.2-9.1 21.7-9.1 24 0 1.1-2.7 7.1-12.6 27.6-2.9 6-8.4 15.7-12.2 21.5-6.7 10.1-13.7 22.8-13 23.5.4.4 10.1-12.7 17.7-23.7 3.3-4.9 6.3-8.1 8.2-8.9 4-1.6 5.7-4.3 7-11.5 1.5-8.4 5.5-17.2 13.8-30.3 7.1-11.3 9-17.1 5.6-17.1-4 0-.2-8 12.9-27.4 7.4-10.8 12.4-20.9 16.8-33.9 3-8.8 4-18.5 2.9-28.7-.1-1.4.1-6.1.4-10.6.8-8.5-.2-12.8-2.2-10.2zm-120.8 247.5c-14.5 17.9-14.8 18.3-12.1 18.3 1.9 0 12.2-11.3 14.6-16 3.5-6.9 2.2-8.1-2.5-2.3zm2.9 10.2c-2.1 1.6-10 8.9-17.4 16.2-13.1 12.9-17.1 18.4-18.4 25-.8 3.8-8.8 12.3-13.8 14.7-3.9 1.9-24.9 21.2-23.1 21.2.4 0 3.4-1.6 6.6-3.5s6-3.5 6.3-3.5 2.7-2.1 5.3-4.8c2.7-2.6 7.7-6.9 11.1-9.7 11.7-9.5 19.5-18.4 22-25.2 1.8-5 4.1-8.3 11.2-16 9.2-10 15.3-17.3 14.5-17.3-.2 0-2.2 1.3-4.3 2.9zm-97.9 94.1c-3.8 3.9-7.3 6.4-9.6 7-4 1.1-6.7 3.7-11.3 10.7-3.7 5.8-8 8.1-16.7 8.9-11.5 1.2-18.9 6.4-21.4 15.2-3.4 12.1-12 20.6-29.1 28.8-5 2.4-9.7 5.1-10.5 6-1.3 1.6-1.1 1.7 2.6 1.1 6-.9 24.7-10.8 35.5-18.7 5.2-3.8 12.8-9.3 16.9-12.2 31-22.1 36-26.8 46.2-43.3 7.3-11.7 6.5-12.7-2.6-3.5zm-31.9 33.1c.3.6-.6 2.4-2.2 3.9-3 3-16.5 11-18.5 11-1.6 0-.5-6.5 1.6-9.7 3.1-4.7 17-8.5 19.1-5.2zm-102.8 46.5c-3.6 2-10.6 6.9-15.5 11.1-10.1 8.5-14.4 11-20.5 11.8-7.1 1-13 2.7-18 5.2-2.6 1.2-5.5 2.3-6.5 2.3s-5.6 1.3-10.3 2.9-11.9 3.7-16 4.6c-9.3 2.1-11.3 3.1-8.6 4.1 2.4.9 11.5-.7 18.8-3.5 3.2-1.1 7.8-2.1 10.3-2.1 3 0 6.5-1 10.3-2.9 3.1-1.6 10.9-4.5 17.2-6.4 10.2-3.2 12.5-4.4 20-10.2 13.3-10.2 19.6-14.4 26.3-17.5 6-2.8 6.1-2.9 2.7-2.9-2.2 0-6 1.3-10.2 3.5zm-10.2 29.5c-13 4.5-18.1 6.9-14.6 6.9.8 0 6.4-1.4 12.5-3.1 10.7-3 17.5-6.1 17.5-8 0-1.2.6-1.3-15.4 4.2zm-323.6-1.2c-9.9 3-12.4 6.6-11.8 16.4 1 14.6 6.4 20.6 17.6 19.2 11.3-1.4 24.1-11.1 20-15.1-1.3-1.4-1.8-1.1-3.6 2-3.5 6-13.5 7.2-16.9 2-2.1-3.3-1.1-5 3.6-5.8 2.6-.4 4.4-1.3 5.1-2.7.9-1.6 1.9-1.9 5.8-1.7 4.5.3 4.7.2 5-2.4.3-2.2-.3-3.1-3-4.7-1.8-1.1-3.7-2.4-4.1-2.9-4.5-5.1-4.7-5.2-9.9-5.1-2.9 0-6.4.4-7.8.8zm237.1 2.2c-4.1 1.1-8.6 2.7-10 3.5l-2.6 1.5 3-.4c4.8-.7 19.9-4.8 21-5.8 1.5-1.5-3.4-.9-11.4 1.2zM659 1215.8c0 3.6 2.5 4.5 10.8 3.9 4.2-.3 9.1-1.1 10.7-1.8 2.8-1.2 2.4-1.4-7-2-5.5-.4-11-1-12.2-1.4-1.9-.6-2.3-.4-2.3 1.3zm-60.7 6.7c-4 1.7-4.2 3.3-.5 4 1.5.3 6.5 1.5 11.2 2.7 10.6 2.7 21.5 3.4 30.3 1.8 11.4-2 7.3-4-8.3-4-7.5 0-10-.5-16.3-3-8.3-3.3-11.6-3.6-16.4-1.5zm171.5.5c-5.9.7-9.2 2.5-8.2 4.2 1.2 1.9 17.4-1.3 19.5-3.9 1.3-1.5-1.4-1.6-11.3-.3zm-51.8 7.5c-1.9.7-6.2 1.4-9.5 1.4-7.4.2-9.3 1.1-7 3.5 2.1 2.1 3.9 2 10.7-.3 7.3-2.5 13.9-6 11.3-6-1.1 0-3.6.7-5.5 1.4zm-70.9 8.6c-4.8.9-5.8 1.5-4.7 2.6 1 1.1 21.9.9 23.6-.2 1-.6.9-1.1-.5-2.2-2.1-1.5-11.4-1.6-18.4-.2zM389.7 632.7c-1.7 1.6-.4 3 3.6 3.9 2.3.5 4.1 1.3 4 1.9-.1.5-3 1.8-6.5 2.7-7.6 2.1-15 1.6-25.8-1.7-11.2-3.5-13.3-3.7-19.7-2.5-12 2.4-14.2 2.5-31.8 1.4-17.2-1.1-21.9-.8-17.8 1.4s18.1 3.4 32.9 2.7c29.7-1.3 33.4-1.2 38.9 1.5 4.4 2.2 6.3 2.5 16.5 2.5 10.6 0 11.9-.2 17.3-2.8 5.1-2.6 6.4-2.8 11.7-2.2 4.9.6 6 .4 6-.7 0-2.5-3.5-4.9-10-6.9-6-1.8-18-2.6-19.3-1.2zM156 644c-7.4.4-17 .8-21.3.9-8.6.1-9.7 1.3-3.9 4.2 2.3 1.2 7.6 1.8 19.5 2.3 15.2.7 16.5.6 19.8-1.2 2.9-1.8 5.5-2.1 17.9-2.3 8-.1 22.7.2 32.8.6 12.1.5 18.2.5 18.2-.2 0-.6-3.9-1.3-8.7-1.7-4.9-.3-12.8-1.1-17.8-1.6-13.5-1.4-41.3-1.9-56.5-1zm300 105.1c-5.2 4.1-6.1 6.1-1.8 3.9 3.7-2 8.8-6 8.8-7.1 0-1.7-1.8-.9-7 3.2zm-15 4.8c-2.5 2.1-5.6 4.4-7 5.1-3.2 1.7-9 6.3-9 7.2 0 .3 1.9 0 4.3-.7 2.3-.7 5.6-1 7.3-.8 2.5.4 3.8-.3 7.9-3.9 4.4-4.1 4.7-4.6 3.8-7.3-.5-1.6-1.3-3-1.9-3.2-.5-.1-2.9 1.4-5.4 3.6zM284.7 850c-2.6 1.6-6.5 3.9-8.7 5s-4 2.5-4 3c0 1.8 1.8 1.1 8.4-3.5 3.7-2.5 7-4.5 7.5-4.5s1.4-.7 2.1-1.5c2-2.4-.2-1.8-5.3 1.5z"/></svg>